<?xml version="1.0" encoding="UTF-8"?>
<!DOCTYPE svg PUBLIC "-//W3C//DTD SVG 1.1//EN" "http://www.w3.org/Graphics/SVG/1.1/DTD/svg11.dtd">
<svg xmlns="http://www.w3.org/2000/svg" version="1.1" width="4500px" height="4500px" style="shape-rendering:geometricPrecision; text-rendering:geometricPrecision; image-rendering:optimizeQuality; fill-rule:evenodd; clip-rule:evenodd" xmlns:xlink="http://www.w3.org/1999/xlink">
<g><path style="opacity:0.999" fill="#123f85" d="M 2213.5,117.5 C 2649.39,112.887 3050.73,227.053 3417.5,460C 3716.81,654.626 3953.97,907.126 4129,1217.5C 4323.53,1570.75 4411.86,1949.08 4394,2352.5C 4372.22,2760.87 4245.22,3132.2 4013,3466.5C 3786.46,3785.39 3495.62,4026.56 3140.5,4190C 2795.74,4343.9 2435.08,4404.9 2058.5,4373C 1628.9,4332.55 1245.57,4179.89 908.5,3915C 626.622,3689.4 414.122,3410.9 271,3079.5C 119.694,2717.73 70.3606,2342.39 123,1953.5C 184.01,1539.29 350.01,1174.63 621,859.5C 909.114,530.741 1264.95,307.908 1688.5,191C 1860.68,145.331 2035.68,120.831 2213.5,117.5 Z"/></g>
<g><path style="opacity:1" fill="#fbfbfd" d="M 2248.5,232.5 C 2282.89,232.335 2317.22,233.502 2351.5,236C 2345.51,246.141 2340.18,256.641 2335.5,267.5C 2312.18,267.66 2288.85,267.827 2265.5,268C 2254.4,268.347 2245.57,272.847 2239,281.5C 2238.33,316.5 2238.33,351.5 2239,386.5C 2241.94,392.07 2246.44,395.903 2252.5,398C 2270.5,402.893 2288.83,404.726 2307.5,403.5C 2307.77,379.819 2308.44,356.153 2309.5,332.5C 2321.77,330.178 2334.1,328.178 2346.5,326.5C 2344.72,363.871 2342.72,401.204 2340.5,438.5C 2338.17,438.833 2335.83,439.167 2333.5,439.5C 2310.18,438.197 2286.85,437.364 2263.5,437C 2242.78,436.057 2225.95,427.557 2213,411.5C 2208.78,403.949 2205.78,395.949 2204,387.5C 2203.2,354.831 2202.36,322.164 2201.5,289.5C 2201.44,257.173 2217.11,238.173 2248.5,232.5 Z"/></g>
<g><path style="opacity:1" fill="#fcfcfd" d="M 2420.5,244.5 C 2449.25,242.191 2477.25,245.691 2504.5,255C 2532.51,266.842 2544.68,288.008 2541,318.5C 2537.17,346.842 2533.17,375.176 2529,403.5C 2524.31,423.743 2512.81,438.576 2494.5,448C 2483.89,450.963 2473.05,452.463 2462,452.5C 2444.5,452.058 2427.34,449.558 2410.5,445C 2386.15,438.311 2371.98,422.478 2368,397.5C 2367.06,391.707 2366.56,385.873 2366.5,380C 2367.69,355.147 2369.19,330.314 2371,305.5C 2371.65,284.702 2379.49,267.202 2394.5,253C 2402.69,248.437 2411.35,245.603 2420.5,244.5 Z"/></g>
<g><path style="opacity:1" fill="#fcfdfd" d="M 2007.5,246.5 C 2019.17,246.333 2030.84,246.5 2042.5,247C 2073.93,250.433 2091.43,267.933 2095,299.5C 2098.68,330.737 2100.68,362.07 2101,393.5C 2097.45,423.046 2081.28,441.213 2052.5,448C 2032.18,453.665 2011.51,455.665 1990.5,454C 1973.64,453.491 1960.48,446.324 1951,432.5C 1944.51,422.695 1940.18,412.028 1938,400.5C 1934.39,378.882 1931.05,357.215 1928,335.5C 1926.71,323.522 1926.38,311.522 1927,299.5C 1929.8,277.705 1941.63,263.539 1962.5,257C 1977.44,252.679 1992.44,249.179 2007.5,246.5 Z"/></g>
<g><path style="opacity:1" fill="#fdfdfe" d="M 2573.5,261.5 C 2583.84,262.395 2594.01,264.061 2604,266.5C 2629.44,319.698 2653.44,373.364 2676,427.5C 2686.71,381.009 2697.21,334.343 2707.5,287.5C 2719.12,290.821 2730.78,293.988 2742.5,297C 2726.77,362.754 2711.44,428.587 2696.5,494.5C 2684.2,492.088 2672.03,489.088 2660,485.5C 2640.62,436.757 2619.62,388.424 2597,340.5C 2589.63,381.075 2582.79,421.742 2576.5,462.5C 2565.57,462.98 2554.74,463.98 2544,465.5C 2543.83,464.5 2543.67,463.5 2543.5,462.5C 2553.5,395.5 2563.5,328.5 2573.5,261.5 Z"/></g>
<g><path style="opacity:1" fill="#fdfdfd" d="M 1885.5,264.5 C 1896.96,328.574 1907.79,392.907 1918,457.5C 1918.67,460.5 1918.67,463.5 1918,466.5C 1908.95,468.787 1899.79,470.787 1890.5,472.5C 1889.23,472.43 1888.06,472.097 1887,471.5C 1874.35,404.973 1862.52,338.307 1851.5,271.5C 1863.04,269.527 1874.37,267.194 1885.5,264.5 Z"/></g>
<g><path style="opacity:1" fill="#133f85" d="M 2436.5,276.5 C 2454.32,275.727 2471.65,278.227 2488.5,284C 2497.86,289.87 2503.36,298.37 2505,309.5C 2506.43,339.409 2503.09,368.742 2495,397.5C 2491.61,406.448 2485.78,413.281 2477.5,418C 2454.92,422.566 2433.26,419.899 2412.5,410C 2405.22,401.939 2401.39,392.439 2401,381.5C 2399.94,359.739 2400.94,338.072 2404,316.5C 2405.49,303.026 2410.66,291.193 2419.5,281C 2424.87,278.146 2430.53,276.646 2436.5,276.5 Z"/></g>
<g><path style="opacity:1" fill="#133f85" d="M 2013.5,278.5 C 2022.52,278.62 2031.52,279.12 2040.5,280C 2048.71,283.908 2054.54,290.075 2058,298.5C 2060.58,305.671 2062.58,313.004 2064,320.5C 2066.77,342.427 2067.77,364.427 2067,386.5C 2066.38,393.313 2064.38,399.647 2061,405.5C 2058.83,409 2056,411.833 2052.5,414C 2034.52,421.248 2015.86,423.914 1996.5,422C 1990.16,420.745 1984.99,417.579 1981,412.5C 1976.18,405.372 1972.51,397.706 1970,389.5C 1964.74,365.783 1962.07,341.783 1962,317.5C 1961.52,304.974 1966.02,294.807 1975.5,287C 1988,282.758 2000.67,279.925 2013.5,278.5 Z"/></g>
<g><path style="opacity:1" fill="#fcfdfd" d="M 1802.5,281.5 C 1803.38,281.369 1804.04,281.702 1804.5,282.5C 1801.79,294.353 1799.12,306.186 1796.5,318C 1775.27,322.557 1754.27,327.89 1733.5,334C 1722.89,337.377 1714.39,343.544 1708,352.5C 1707.51,362.062 1708.84,371.396 1712,380.5C 1718.43,406.682 1725.43,432.682 1733,458.5C 1735.41,460.956 1738.24,462.789 1741.5,464C 1750.83,464.667 1760.17,464.667 1769.5,464C 1780.77,461.181 1792.11,458.681 1803.5,456.5C 1798.32,433.895 1793.32,411.228 1788.5,388.5C 1788.83,387.5 1789.17,386.5 1789.5,385.5C 1800.17,380.5 1810.83,375.5 1821.5,370.5C 1829.16,407.141 1836.83,443.807 1844.5,480.5C 1817.19,487.327 1789.86,494.161 1762.5,501C 1738.96,505.048 1719.79,497.882 1705,479.5C 1702.73,475.962 1700.73,472.295 1699,468.5C 1690.46,437.451 1681.79,406.451 1673,375.5C 1664.03,346.039 1672.87,323.873 1699.5,309C 1733.4,298.108 1767.74,288.941 1802.5,281.5 Z"/></g>
<g><path style="opacity:1" fill="#fdfdfe" d="M 2769.5,304.5 C 2828.21,320.332 2886.21,338.832 2943.5,360C 2939.63,370.603 2935.97,381.27 2932.5,392C 2879.53,419.812 2827.86,449.646 2777.5,481.5C 2816.28,493.604 2854.61,506.771 2892.5,521C 2886.17,530 2879.83,539 2873.5,548C 2870.79,548.328 2868.13,547.995 2865.5,547C 2817.67,529.111 2769.17,513.611 2720,500.5C 2721.7,489.833 2724.2,479.333 2727.5,469C 2778.5,436.158 2830.5,404.825 2883.5,375C 2843.97,360.822 2803.97,348.489 2763.5,338C 2762.92,337.107 2762.59,336.107 2762.5,335C 2765.08,324.866 2767.41,314.7 2769.5,304.5 Z"/></g>
<g><path style="opacity:1" fill="#fdfdfe" d="M 1633.5,328.5 C 1634.78,329.694 1635.44,331.36 1635.5,333.5C 1633.99,344.153 1632.65,354.82 1631.5,365.5C 1617.17,369.887 1602.84,374.387 1588.5,379C 1570.71,386.205 1552.71,392.705 1534.5,398.5C 1539.51,413.224 1544.51,427.891 1549.5,442.5C 1581.38,430.426 1613.71,419.093 1646.5,408.5C 1646.6,421.128 1645.26,433.628 1642.5,446C 1615.47,454.841 1588.8,464.341 1562.5,474.5C 1561.37,476.074 1561.2,477.741 1562,479.5C 1567.12,494.821 1572.62,509.988 1578.5,525C 1583.62,524.806 1588.62,523.806 1593.5,522C 1619.76,512.247 1646.26,503.08 1673,494.5C 1676.89,504.999 1679.89,515.666 1682,526.5C 1648.54,538.208 1615.04,549.708 1581.5,561C 1576.87,561.828 1572.2,562.328 1567.5,562.5C 1563.26,562.747 1559.26,561.913 1555.5,560C 1552.33,555.486 1549.83,550.653 1548,545.5C 1527.92,490.923 1508.09,436.256 1488.5,381.5C 1535.96,361.677 1584.29,344.011 1633.5,328.5 Z"/></g>
<g><path style="opacity:1" fill="#fcfcfd" d="M 3033.5,401.5 C 3043.24,402.226 3052.41,404.893 3061,409.5C 3061.73,482.866 3060.56,556.199 3057.5,629.5C 3048.93,626.215 3040.6,622.382 3032.5,618C 3026.72,613.604 3023.72,607.771 3023.5,600.5C 3024.35,581.321 3025.35,562.154 3026.5,543C 3026.21,541.11 3025.21,539.777 3023.5,539C 3005.06,531.029 2986.56,523.195 2968,515.5C 2962.38,520.121 2957.04,525.121 2952,530.5C 2941.2,542.967 2930.04,555.133 2918.5,567C 2907.26,563.75 2896.26,559.583 2885.5,554.5C 2922.82,511.007 2962.15,469.173 3003.5,429C 3013.4,419.599 3023.4,410.432 3033.5,401.5 Z"/></g>
<g><path style="opacity:1" fill="#fcfdfd" d="M 1372.5,431.5 C 1373.5,431.5 1374.5,431.5 1375.5,431.5C 1397.06,483.306 1419.23,534.973 1442,586.5C 1471.52,571.658 1501.68,558.324 1532.5,546.5C 1532.9,557.384 1533.9,568.217 1535.5,579C 1535.17,579.833 1534.83,580.667 1534.5,581.5C 1497.29,596.853 1460.79,613.853 1425,632.5C 1397.16,570.983 1369.33,509.483 1341.5,448C 1351.93,442.456 1362.26,436.956 1372.5,431.5 Z"/></g>
<g><path style="opacity:1" fill="#154086" d="M 3025.5,456.5 C 3026.28,470.003 3026.95,483.67 3027.5,497.5C 3027.17,499.5 3026.83,501.5 3026.5,503.5C 3015.28,498.943 3004.28,493.943 2993.5,488.5C 3003.88,477.452 3014.55,466.785 3025.5,456.5 Z"/></g>
<g><path style="opacity:1" fill="#fcfdfd" d="M 3166.5,470.5 C 3177.53,469.537 3188.19,471.037 3198.5,475C 3229.95,491.221 3260.61,508.721 3290.5,527.5C 3281.11,534.889 3271.44,541.889 3261.5,548.5C 3241.52,536.842 3221.19,525.676 3200.5,515C 3191.55,510.937 3182.22,509.604 3172.5,511C 3170.04,512.458 3167.87,514.291 3166,516.5C 3152.59,544.986 3138.92,573.32 3125,601.5C 3122.36,608.432 3123.36,614.766 3128,620.5C 3142.66,634.748 3159.16,646.414 3177.5,655.5C 3178.48,655.023 3179.31,654.357 3180,653.5C 3190.04,633.921 3200.21,614.421 3210.5,595C 3217.35,595.612 3224.02,597.279 3230.5,600C 3234.92,602.251 3239.58,603.917 3244.5,605C 3245.52,605.519 3246.18,606.353 3246.5,607.5C 3229.27,640.063 3211.61,672.397 3193.5,704.5C 3171.32,690.576 3148.66,677.409 3125.5,665C 3106.42,653.986 3094.25,637.82 3089,616.5C 3088.33,611.167 3088.33,605.833 3089,600.5C 3090.21,595.469 3091.54,590.469 3093,585.5C 3106.94,555.953 3120.61,526.286 3134,496.5C 3141.22,483.089 3152.06,474.422 3166.5,470.5 Z"/></g>
<g><path style="opacity:1" fill="#fcfdfd" d="M 1297.5,480.5 C 1309.5,479.341 1320.17,482.508 1329.5,490C 1340.73,500.232 1349.23,512.399 1355,526.5C 1365.84,549.18 1375.84,572.18 1385,595.5C 1392.75,623.158 1385.58,645.991 1363.5,664C 1339.41,683.545 1312.07,696.378 1281.5,702.5C 1262.41,699.578 1247.24,690.245 1236,674.5C 1220.53,649.012 1205.87,623.012 1192,596.5C 1188.45,587.315 1186.28,577.815 1185.5,568C 1185.43,549.803 1192.76,535.47 1207.5,525C 1220.97,514.095 1235.3,504.428 1250.5,496C 1260.1,491.802 1269.76,487.802 1279.5,484C 1285.64,482.867 1291.64,481.701 1297.5,480.5 Z"/></g>
<g><path style="opacity:1" fill="#123f85" d="M 1284.5,516.5 C 1292.68,515.184 1300.01,517.018 1306.5,522C 1310.67,525.5 1314.5,529.333 1318,533.5C 1331.42,555.334 1342.42,578.334 1351,602.5C 1353.46,612.761 1352.79,622.761 1349,632.5C 1342.77,639.73 1335.6,645.897 1327.5,651C 1315.8,658.69 1303.13,663.857 1289.5,666.5C 1282.71,665.848 1276.71,663.348 1271.5,659C 1265.92,654.093 1261.09,648.593 1257,642.5C 1244.82,623.133 1234.48,602.8 1226,581.5C 1224.11,572.472 1224.11,563.472 1226,554.5C 1227.74,550.759 1230.24,547.592 1233.5,545C 1248.84,532.336 1265.84,522.836 1284.5,516.5 Z"/></g>
<g><path style="opacity:1" fill="#fcfdfd" d="M 1148.5,557.5 C 1149.5,557.47 1150.16,557.97 1150.5,559C 1151.16,561.464 1151.66,563.964 1152,566.5C 1152.46,575.561 1153.13,584.561 1154,593.5C 1132.91,607.296 1112.07,621.462 1091.5,636C 1081.24,642.926 1073.07,651.76 1067,662.5C 1064.67,668.825 1065.33,674.825 1069,680.5C 1086.25,705.995 1103.25,731.662 1120,757.5C 1125.89,761.373 1132.39,762.54 1139.5,761C 1147.23,758.904 1154.57,755.904 1161.5,752C 1183.87,737.486 1206.21,722.986 1228.5,708.5C 1234.82,716.464 1240.16,725.13 1244.5,734.5C 1243.99,736.088 1242.99,737.255 1241.5,738C 1216.49,754.171 1191.82,770.838 1167.5,788C 1152.99,796.876 1137.32,799.876 1120.5,797C 1109.77,793.597 1100.6,787.764 1093,779.5C 1075.06,752.558 1056.72,725.892 1038,699.5C 1025.52,679.488 1025.52,659.488 1038,639.5C 1042.8,633.698 1047.97,628.198 1053.5,623C 1084.8,600.523 1116.46,578.69 1148.5,557.5 Z"/></g>
<g><path style="opacity:1" fill="#fefefe" d="M 2206.5,564.5 C 2581.27,558.177 2921.94,661.01 3228.5,873C 3509.57,1073.37 3712.73,1334.2 3838,1655.5C 3961.99,1990.69 3979.66,2331.69 3891,2678.5C 3790.14,3043.95 3590.98,3343.79 3293.5,3578C 2999.09,3803.21 2665.42,3921.87 2292.5,3934C 1917.7,3940.81 1577.04,3838.15 1270.5,3626C 993.445,3428.65 791.945,3172.15 666,2856.5C 537.481,2517.66 518.148,2172.33 608,1820.5C 708.858,1455.05 908.024,1155.21 1205.5,921C 1500.14,695.822 1833.8,576.989 2206.5,564.5 Z"/></g>
<g><path style="opacity:1" fill="#fdfdfe" d="M 3376.5,591.5 C 3388.26,592.372 3397.59,597.372 3404.5,606.5C 3393.27,678.639 3379.61,750.306 3363.5,821.5C 3355.06,815.529 3346.9,809.196 3339,802.5C 3335.85,796.512 3334.85,790.179 3336,783.5C 3338.7,768.324 3342.03,753.324 3346,738.5C 3346.67,734.483 3347,730.483 3347,726.5C 3329.5,713.42 3311.5,701.086 3293,689.5C 3273.15,702.76 3253.82,716.76 3235,731.5C 3224.75,724.958 3214.58,718.291 3204.5,711.5C 3259.8,668.521 3317.14,628.521 3376.5,591.5 Z"/></g>
<g><path style="opacity:1" fill="#174186" d="M 3359.5,644.5 C 3360.76,645.514 3361.43,647.014 3361.5,649C 3359.79,662.947 3357.46,676.781 3354.5,690.5C 3344.3,683.138 3333.97,675.972 3323.5,669C 3335.39,660.563 3347.39,652.396 3359.5,644.5 Z"/></g>
<g><path style="opacity:1" fill="#010101" d="M 2923.5,2819.5 C 2923.5,2810.5 2923.5,2801.5 2923.5,2792.5C 2921.26,2792.21 2919.26,2792.54 2917.5,2793.5C 2907.86,2793.34 2898.86,2790.84 2890.5,2786C 2876,2776.83 2864.17,2765 2855,2750.5C 2846.5,2737.47 2839,2723.8 2832.5,2709.5C 2832,2708.48 2831.33,2708.31 2830.5,2709C 2759.59,2837.99 2665.93,2947.99 2549.5,3039C 2513.68,3065.76 2475.68,3089.26 2435.5,3109.5C 2434.66,3113.48 2434.82,3117.48 2436,3121.5C 2455.2,3203.52 2485.2,3281.19 2526,3354.5C 2548.87,3393.73 2576.71,3429.23 2609.5,3461C 2547.8,3482.38 2490.46,3474.05 2437.5,3436C 2429.21,3430.05 2421.21,3423.71 2413.5,3417C 2405.65,3408.99 2397.65,3401.15 2389.5,3393.5C 2369.42,3419.98 2351.59,3447.98 2336,3477.5C 2311.31,3524.55 2287.97,3572.22 2266,3620.5C 2233.61,3557.38 2198.95,3495.71 2162,3435.5C 2153.89,3422.93 2145.05,3410.93 2135.5,3399.5C 2105.31,3431.42 2069.31,3453.92 2027.5,3467C 1989.9,3475.79 1952.9,3473.95 1916.5,3461.5C 1956.72,3422.7 1989.88,3378.7 2016,3329.5C 2051.88,3261.56 2078.55,3189.89 2096,3114.5C 2096.67,3112.17 2096.67,3109.83 2096,3107.5C 2010.97,3062.84 1935.3,3005.51 1869,2935.5C 1805.39,2867.9 1751.06,2793.57 1706,2712.5C 1705.67,2709.5 1705.33,2706.5 1705,2703.5C 1695.37,2726.11 1682.7,2746.77 1667,2765.5C 1655.83,2778 1642,2785.67 1625.5,2788.5C 1621.5,2788.5 1617.5,2788.5 1613.5,2788.5C 1613.18,2794.36 1613.51,2800.02 1614.5,2805.5C 1614.77,2809.6 1614.27,2813.6 1613,2817.5C 1599.9,2850.24 1581.4,2879.4 1557.5,2905C 1543.64,2918.43 1527.31,2927.43 1508.5,2932C 1504.67,2932.17 1500.83,2932.33 1497,2932.5C 1491.68,2932.71 1486.52,2932.05 1481.5,2930.5C 1470.86,2960.23 1456.69,2988.23 1439,3014.5C 1432.49,3022.04 1425.66,3029.2 1418.5,3036C 1404.28,3047.39 1388.28,3051.22 1370.5,3047.5C 1357.75,3083.01 1340.25,3116.01 1318,3146.5C 1298.89,3170.97 1274.72,3188.47 1245.5,3199C 1227.59,3202.99 1209.59,3203.49 1191.5,3200.5C 1191.33,2636.83 1191.5,2073.17 1192,1509.5C 1248.82,1473.36 1298.15,1428.7 1340,1375.5C 1365.51,1342.15 1383.84,1305.15 1395,1264.5C 1398.05,1249.19 1400.55,1233.85 1402.5,1218.5C 1475.73,1288.86 1558.39,1345.7 1650.5,1389C 1701.05,1412.12 1754.05,1426.79 1809.5,1433C 1880.07,1439.03 1945.4,1423.69 2005.5,1387C 2022.43,1373.74 2039.1,1360.07 2055.5,1346C 2065.83,1337 2075.5,1327.33 2084.5,1317C 2047.49,1327.47 2009.82,1335.14 1971.5,1340C 2000.53,1316.64 2025.7,1289.81 2047,1259.5C 2052.11,1251.94 2056.11,1243.94 2059,1235.5C 2044.08,1251.52 2027.25,1265.02 2008.5,1276C 1994.98,1282.66 1981.98,1281.83 1969.5,1273.5C 1999.47,1241.26 2022.63,1204.59 2039,1163.5C 2062.45,1103.68 2077.45,1041.68 2084,977.5C 2088.68,935.966 2090.68,894.3 2090,852.5C 2173.83,940.184 2273.66,1002.68 2389.5,1040C 2452.95,1059.42 2517.95,1069.59 2584.5,1070.5C 2547.1,1120.54 2497.1,1146.87 2434.5,1149.5C 2455.63,1181.81 2480.63,1210.98 2509.5,1237C 2529.66,1254.92 2552.66,1267.92 2578.5,1276C 2557.8,1289.01 2535.14,1294.84 2510.5,1293.5C 2494.34,1293.6 2478.34,1292.1 2462.5,1289C 2449.28,1286.11 2436.28,1282.78 2423.5,1279C 2452.03,1312.87 2482.03,1345.53 2513.5,1377C 2544.75,1402.45 2581.08,1420.11 2622.5,1430C 2670.01,1440.56 2717.68,1441.23 2765.5,1432C 2825.2,1419.24 2881.86,1398.24 2935.5,1369C 3008.24,1328.96 3074.57,1280.12 3134.5,1222.5C 3137.84,1262.18 3149.01,1299.52 3168,1334.5C 3192.77,1377.3 3223.6,1415.46 3260.5,1449C 3286.88,1472.68 3314.88,1494.18 3344.5,1513.5C 3345.83,2077.17 3345.83,2640.83 3344.5,3204.5C 3341.89,3205.23 3339.22,3205.73 3336.5,3206C 3309.1,3209.29 3283.77,3203.62 3260.5,3189C 3235.12,3170.95 3214.62,3148.45 3199,3121.5C 3186.11,3099.07 3175.45,3075.74 3167,3051.5C 3157.51,3054.21 3148.01,3054.04 3138.5,3051C 3126.72,3046.55 3116.55,3039.71 3108,3030.5C 3098.44,3019.71 3090.11,3008.05 3083,2995.5C 3072.41,2975.69 3063.41,2955.36 3056,2934.5C 3037.49,2939.08 3019.99,2936.58 3003.5,2927C 2988.38,2917.35 2975.21,2905.52 2964,2891.5C 2947.14,2869.45 2933.64,2845.45 2923.5,2819.5 Z"/></g>
<g><path style="opacity:1" fill="#fefefe" d="M 2105.5,892.5 C 2213.64,992.569 2340.64,1054.74 2486.5,1079C 2507.77,1081.66 2529.1,1083.66 2550.5,1085C 2517.46,1115.95 2478.13,1131.79 2432.5,1132.5C 2422.79,1131.63 2413.12,1130.8 2403.5,1130C 2429.25,1176.12 2461.91,1216.79 2501.5,1252C 2512.14,1260.66 2523.48,1268.32 2535.5,1275C 2491.76,1279.45 2449.76,1272.79 2409.5,1255C 2405.5,1252.67 2401.5,1250.33 2397.5,1248C 2386.5,1247.71 2383.67,1252.54 2389,1262.5C 2413.21,1293.05 2438.54,1322.72 2465,1351.5C 2477,1364.83 2489.67,1377.5 2503,1389.5C 2503.67,1390.17 2503.67,1390.83 2503,1391.5C 2495.14,1401.87 2486.81,1411.87 2478,1421.5C 2465,1402.5 2452,1383.5 2439,1364.5C 2427.6,1382.24 2416.6,1400.24 2406,1418.5C 2405.28,1420.26 2404.11,1421.09 2402.5,1421C 2386,1398.5 2369.5,1376 2353,1353.5C 2341,1376.83 2329,1400.17 2317,1423.5C 2300.33,1401.5 2283.67,1379.5 2267,1357.5C 2256,1379.5 2245,1401.5 2234,1423.5C 2219,1402.5 2204,1381.5 2189,1360.5C 2175.41,1380.67 2161.58,1400.67 2147.5,1420.5C 2133.07,1400.62 2118.4,1380.95 2103.5,1361.5C 2088.09,1382.66 2072.92,1403.99 2058,1425.5C 2048.5,1413.33 2039,1401.17 2029.5,1389C 2052.82,1371.35 2074.66,1351.85 2095,1330.5C 2101.07,1323.36 2106.41,1315.69 2111,1307.5C 2112.07,1304.4 2112.9,1301.23 2113.5,1298C 2112.74,1289.86 2112.24,1281.69 2112,1273.5C 2107.17,1279.67 2102.33,1285.83 2097.5,1292C 2084.16,1298.89 2070.16,1304.23 2055.5,1308C 2045.2,1310.67 2034.87,1312.67 2024.5,1314C 2043.72,1294.05 2059.89,1271.88 2073,1247.5C 2082.54,1226.89 2087.04,1205.22 2086.5,1182.5C 2065.68,1206.82 2043.01,1229.32 2018.5,1250C 2014.23,1253.65 2009.57,1256.32 2004.5,1258C 2028.79,1224.93 2047.95,1189.1 2062,1150.5C 2090.49,1066.95 2104.99,980.946 2105.5,892.5 Z"/></g>
<g><path style="opacity:1" fill="#030303" d="M 1940.5,927.5 C 1973.15,927.259 2003.48,935.426 2031.5,952C 2042.76,958.546 2053.6,965.712 2064,973.5C 2053.7,1009.07 2043.37,1044.74 2033,1080.5C 2032.28,1081.45 2031.45,1081.62 2030.5,1081C 2000.05,1053.6 1966.38,1030.94 1929.5,1013C 1920.7,1009.18 1911.53,1006.68 1902,1005.5C 1898.93,1006.21 1895.93,1006.21 1893,1005.5C 1872.14,1012.51 1853.31,1023.01 1836.5,1037C 1829.3,1044.53 1821.8,1051.7 1814,1058.5C 1823.34,1015.31 1844.84,979.478 1878.5,951C 1896.84,936.943 1917.51,929.109 1940.5,927.5 Z"/></g>
<g><path style="opacity:1" fill="#fcfcfc" d="M 1941.5,943.5 C 1971.19,944.342 1998.85,952.175 2024.5,967C 2031.25,970.792 2037.75,974.959 2044,979.5C 2044.67,981.5 2044.67,983.5 2044,985.5C 2036.8,1007.65 2030.3,1029.99 2024.5,1052.5C 2023.45,1052.65 2022.45,1052.48 2021.5,1052C 1994.54,1030.07 1965.21,1011.74 1933.5,997C 1937.61,996.059 1941.78,995.559 1946,995.5C 1956.9,996.466 1967.73,997.8 1978.5,999.5C 1979.09,999.291 1979.59,998.957 1980,998.5C 1981.16,993.547 1981.99,988.547 1982.5,983.5C 1938.4,975.073 1896.73,981.573 1857.5,1003C 1856.36,1003.75 1855.36,1003.58 1854.5,1002.5C 1868.31,979.518 1887.31,962.351 1911.5,951C 1921.31,947.213 1931.31,944.713 1941.5,943.5 Z"/></g>
<g><path style="opacity:1" fill="#040404" d="M 2150.5,971.5 C 2154.56,977.941 2158.39,984.607 2162,991.5C 2182.73,1007.79 2204.89,1021.95 2228.5,1034C 2255.38,1047.61 2282.38,1060.94 2309.5,1074C 2247.83,1068.04 2186.17,1061.87 2124.5,1055.5C 2133.36,1027.57 2142.03,999.574 2150.5,971.5 Z"/></g>
<g><path style="opacity:1" fill="#f9f9f9" d="M 2217.5,1046.5 C 2216.43,1047.43 2215.1,1047.77 2213.5,1047.5C 2191.55,1045.01 2169.55,1042.84 2147.5,1041C 2146.98,1040.44 2146.64,1039.77 2146.5,1039C 2150.41,1029.43 2153.41,1019.59 2155.5,1009.5C 2175.43,1022.81 2196.1,1035.14 2217.5,1046.5 Z"/></g>
<g><path style="opacity:1" fill="#7c7c7c" d="M 2217.5,1046.5 C 2218.47,1046.99 2219.47,1047.49 2220.5,1048C 2217.96,1048.8 2215.63,1048.63 2213.5,1047.5C 2215.1,1047.77 2216.43,1047.43 2217.5,1046.5 Z"/></g>
<g><path style="opacity:1" fill="#fefefe" d="M 1413.5,1252.5 C 1480.88,1311.98 1555.22,1361.48 1636.5,1401C 1670.24,1415.91 1704.91,1428.25 1740.5,1438C 1799.57,1452.86 1858.9,1454.19 1918.5,1442C 1953.59,1433.64 1986.09,1419.47 2016,1399.5C 2030.18,1417.21 2044.34,1434.87 2058.5,1452.5C 2073.83,1431.66 2088.99,1410.66 2104,1389.5C 2118.67,1409.5 2133.33,1429.5 2148,1449.5C 2161.67,1429.67 2175.5,1410 2189.5,1390.5C 2205.17,1411.83 2220.83,1433.17 2236.5,1454.5C 2247.92,1432.66 2259.09,1410.66 2270,1388.5C 2286.67,1410.5 2303.33,1432.5 2320,1454.5C 2331.67,1431.17 2343.33,1407.83 2355,1384.5C 2371.34,1407 2387.84,1429.33 2404.5,1451.5C 2416.33,1432.5 2428.17,1413.5 2440,1394.5C 2452,1412.5 2464,1430.5 2476,1448.5C 2490.44,1433.4 2504.1,1417.74 2517,1401.5C 2577.04,1441.06 2643.21,1458.56 2715.5,1454C 2765.53,1450.72 2813.86,1440.05 2860.5,1422C 2937.52,1390.67 3008.52,1349.34 3073.5,1298C 3089.83,1284.5 3106.17,1271 3122.5,1257.5C 3133.48,1307.45 3154.65,1352.45 3186,1392.5C 3226.45,1443.8 3273.95,1487.13 3328.5,1522.5C 3329.5,1676.83 3329.83,1831.17 3329.5,1985.5C 3288.11,1981.55 3251.78,1966.05 3220.5,1939C 3202.26,1921.09 3188.42,1900.26 3179,1876.5C 3178.5,1838.83 3178.33,1801.17 3178.5,1763.5C 3173.17,1763.5 3167.83,1763.5 3162.5,1763.5C 3162.5,1799.83 3162.5,1836.17 3162.5,1872.5C 3136.85,1870.35 3113.18,1862.51 3091.5,1849C 3085.53,1844.76 3080.03,1839.92 3075,1834.5C 3074.5,1757.5 3074.33,1680.5 3074.5,1603.5C 3069.17,1603.5 3063.83,1603.5 3058.5,1603.5C 3058.5,1677.17 3058.5,1750.83 3058.5,1824.5C 3031.87,1822.46 3007.2,1814.29 2984.5,1800C 2953.1,1778.44 2926.1,1752.27 2903.5,1721.5C 2947.45,1661.55 2991.78,1601.88 3036.5,1542.5C 3020.5,1542.17 3004.5,1541.83 2988.5,1541.5C 2491.83,1542.45 1995.17,1543.45 1498.5,1544.5C 1542.71,1602.87 1586.71,1661.37 1630.5,1720C 1603.17,1758.99 1568.17,1788.99 1525.5,1810C 1510.48,1816.11 1494.81,1819.61 1478.5,1820.5C 1478.5,1746.83 1478.5,1673.17 1478.5,1599.5C 1473.17,1599.5 1467.83,1599.5 1462.5,1599.5C 1462.67,1676.5 1462.5,1753.5 1462,1830.5C 1437.45,1853.69 1408.28,1866.36 1374.5,1868.5C 1374.5,1831.83 1374.5,1795.17 1374.5,1758.5C 1369.17,1758.5 1363.83,1758.5 1358.5,1758.5C 1358.67,1796.5 1358.5,1834.5 1358,1872.5C 1336.19,1925.3 1297.69,1959.47 1242.5,1975C 1231.03,1978.23 1219.36,1980.39 1207.5,1981.5C 1207.17,1827.17 1207.5,1672.83 1208.5,1518.5C 1274.72,1476.11 1329.55,1422.11 1373,1356.5C 1390.89,1327.81 1403.89,1297.14 1412,1264.5C 1413.02,1260.56 1413.52,1256.56 1413.5,1252.5 Z"/></g>
<g><path style="opacity:1" fill="#fefdfd" d="M 2940.5,1557.5 C 2961.84,1557.33 2983.17,1557.5 3004.5,1558C 2945.31,1637.03 2886.31,1716.19 2827.5,1795.5C 2456.17,1798.86 2084.84,1800.36 1713.5,1800C 1652.26,1720.18 1591.26,1640.18 1530.5,1560C 2000.67,1559.47 2470.67,1558.63 2940.5,1557.5 Z"/></g>
<g><path style="opacity:1" fill="#c21f37" d="M 1949.5,1592.5 C 1951.2,1592.34 1952.87,1592.51 1954.5,1593C 1975.95,1602.56 1997.29,1612.39 2018.5,1622.5C 2019.83,1657.83 2019.83,1693.17 2018.5,1728.5C 1997.89,1738.05 1977.39,1747.72 1957,1757.5C 1931.33,1748.5 1905.67,1739.5 1880,1730.5C 1879.17,1692.83 1879.33,1655.16 1880.5,1617.5C 1903.67,1609.33 1926.67,1601 1949.5,1592.5 Z"/></g>
<g><path style="opacity:1" fill="#c21f37" d="M 1785.5,1593.5 C 1787.2,1593.34 1788.87,1593.51 1790.5,1594C 1809.38,1602.19 1828.38,1610.19 1847.5,1618C 1848.57,1618.74 1849.24,1619.74 1849.5,1621C 1846.31,1629.87 1842.48,1638.37 1838,1646.5C 1821,1639.5 1804,1632.5 1787,1625.5C 1773.8,1630.07 1760.63,1634.73 1747.5,1639.5C 1746.5,1663.16 1746.17,1686.82 1746.5,1710.5C 1760.45,1714.09 1774.12,1718.59 1787.5,1724C 1789.5,1724.67 1791.5,1724.67 1793.5,1724C 1803.83,1719.17 1814.17,1714.33 1824.5,1709.5C 1825.42,1705.19 1825.42,1700.86 1824.5,1696.5C 1810.17,1696.5 1795.83,1696.5 1781.5,1696.5C 1781.18,1686.58 1781.51,1676.75 1782.5,1667C 1806.5,1666.5 1830.5,1666.33 1854.5,1666.5C 1855.39,1687.16 1855.56,1707.83 1855,1728.5C 1834.24,1737.88 1813.58,1747.54 1793,1757.5C 1767.33,1748.5 1741.67,1739.5 1716,1730.5C 1715.17,1693.16 1715.33,1655.83 1716.5,1618.5C 1739.67,1610.33 1762.67,1602 1785.5,1593.5 Z"/></g>
<g><path style="opacity:1" fill="#c21d36" d="M 2589.5,1593.5 C 2593.05,1593.44 2596.38,1594.27 2599.5,1596C 2617.74,1604.15 2636.08,1612.15 2654.5,1620C 2650.89,1629.21 2646.72,1638.04 2642,1646.5C 2624.89,1639.36 2607.72,1632.36 2590.5,1625.5C 2577.44,1630.01 2564.44,1634.68 2551.5,1639.5C 2550.5,1663.16 2550.17,1686.82 2550.5,1710.5C 2564.48,1714.11 2578.15,1718.61 2591.5,1724C 2593.5,1724.67 2595.5,1724.67 2597.5,1724C 2607.83,1719.17 2618.17,1714.33 2628.5,1709.5C 2629.49,1705.22 2629.83,1700.88 2629.5,1696.5C 2614.83,1696.5 2600.17,1696.5 2585.5,1696.5C 2585.18,1686.58 2585.51,1676.75 2586.5,1667C 2610.5,1666.33 2634.5,1666.33 2658.5,1667C 2659.83,1687.67 2659.83,1708.33 2658.5,1729C 2637.81,1738.12 2617.31,1747.62 2597,1757.5C 2571.67,1748.33 2546.17,1739.67 2520.5,1731.5C 2520.33,1693.83 2520.5,1656.17 2521,1618.5C 2543.95,1610.24 2566.79,1601.91 2589.5,1593.5 Z"/></g>
<g><path style="opacity:1" fill="#c21d36" d="M 2198.5,1595.5 C 2244.83,1595.5 2291.17,1595.5 2337.5,1595.5C 2337.67,1608.17 2337.5,1620.84 2337,1633.5C 2301.17,1663.33 2265.33,1693.17 2229.5,1723C 2266.5,1723.5 2303.5,1723.67 2340.5,1723.5C 2340.82,1733.42 2340.49,1743.25 2339.5,1753C 2292.5,1753.5 2245.5,1753.67 2198.5,1753.5C 2198.33,1738.83 2198.5,1724.16 2199,1709.5C 2232.21,1681.29 2265.71,1653.46 2299.5,1626C 2265.83,1625.91 2232.17,1625.91 2198.5,1626C 2197.18,1615.83 2197.18,1605.67 2198.5,1595.5 Z"/></g>
<g><path style="opacity:1" fill="#c21e37" d="M 2148.5,1596.5 C 2158.17,1596.5 2167.83,1596.5 2177.5,1596.5C 2178.26,1648.83 2178.93,1701.16 2179.5,1753.5C 2165.25,1753.82 2151.09,1753.49 2137,1752.5C 2117.33,1718.17 2097.67,1683.83 2078,1649.5C 2077.67,1684.17 2077.33,1718.83 2077,1753.5C 2067.25,1754.49 2057.42,1754.82 2047.5,1754.5C 2047.16,1702.5 2047,1650.5 2047,1598.5C 2058.76,1597.35 2070.59,1597.18 2082.5,1598C 2104.71,1635.59 2126.55,1673.42 2148,1711.5C 2148.25,1673.09 2148.42,1634.76 2148.5,1596.5 Z"/></g>
<g><path style="opacity:1" fill="#c21c36" d="M 2455.5,1596.5 C 2467.83,1596.5 2480.17,1596.5 2492.5,1596.5C 2493.01,1649.5 2493.18,1702.5 2493,1755.5C 2481.91,1756.65 2470.74,1756.82 2459.5,1756C 2444.69,1738.69 2429.36,1721.86 2413.5,1705.5C 2403.39,1718.87 2393.39,1732.37 2383.5,1746C 2382.5,1746.67 2381.5,1746.67 2380.5,1746C 2372.88,1740.72 2365.55,1735.05 2358.5,1729C 2370.24,1713.6 2381.57,1697.94 2392.5,1682C 2380.79,1668.76 2368.95,1655.59 2357,1642.5C 2355.71,1640.95 2355.04,1639.28 2355,1637.5C 2362,1631.17 2369,1624.83 2376,1618.5C 2387.67,1631.5 2399.33,1644.5 2411,1657.5C 2426.05,1637.29 2440.88,1616.96 2455.5,1596.5 Z"/></g>
<g><path style="opacity:1" fill="#c11b36" d="M 2775.5,1596.5 C 2787.75,1596.18 2799.91,1596.51 2812,1597.5C 2812.5,1650.5 2812.67,1703.5 2812.5,1756.5C 2801.49,1756.67 2790.49,1756.5 2779.5,1756C 2763.98,1739.32 2748.65,1722.48 2733.5,1705.5C 2722.83,1719.17 2712.17,1732.83 2701.5,1746.5C 2693.35,1741.17 2685.68,1735.33 2678.5,1729C 2689.43,1713.06 2700.76,1697.4 2712.5,1682C 2699.67,1667.83 2686.83,1653.67 2674,1639.5C 2673.33,1638.83 2673.33,1638.17 2674,1637.5C 2681,1631.17 2688,1624.83 2695,1618.5C 2707.04,1631.04 2718.88,1643.71 2730.5,1656.5C 2745.5,1636.51 2760.5,1616.51 2775.5,1596.5 Z"/></g>
<g><path style="opacity:1" fill="#fefefe" d="M 1949.5,1624.5 C 1962.49,1629.74 1975.33,1635.41 1988,1641.5C 1988.33,1660.51 1988.83,1679.51 1989.5,1698.5C 1989.17,1702.17 1988.83,1705.83 1988.5,1709.5C 1977.19,1714.99 1965.69,1719.99 1954,1724.5C 1939.69,1719.51 1925.35,1714.51 1911,1709.5C 1910.17,1685.83 1910.33,1662.16 1911.5,1638.5C 1924.34,1634 1937.01,1629.33 1949.5,1624.5 Z"/></g>
<g><path style="opacity:1" fill="#fefdfd" d="M 2781.5,1637.5 C 2782.66,1663 2782.83,1688.66 2782,1714.5C 2771.82,1702.99 2761.65,1691.49 2751.5,1680C 2761.73,1665.95 2771.73,1651.78 2781.5,1637.5 Z"/></g>
<g><path style="opacity:1" fill="#fefdfd" d="M 2461.5,1638.5 C 2462.42,1664.01 2462.92,1689.68 2463,1715.5C 2452.5,1703.67 2442,1691.83 2431.5,1680C 2442.13,1666.55 2452.13,1652.72 2461.5,1638.5 Z"/></g>
<g><path style="opacity:1" fill="#b6b7b5" d="M 1638.5,1737.5 C 1639.24,1737.37 1639.91,1737.54 1640.5,1738C 1660.93,1761.71 1680.76,1785.87 1700,1810.5C 1692.27,1838.44 1677.1,1861.61 1654.5,1880C 1646.56,1884.62 1638.23,1888.29 1629.5,1891C 1619.46,1892.2 1609.46,1893.54 1599.5,1895C 1589.18,1910.46 1578.02,1925.29 1566,1939.5C 1551.33,1956.18 1533.5,1968.01 1512.5,1975C 1507.37,1976.05 1502.21,1976.88 1497,1977.5C 1489.17,1976.61 1481.67,1974.61 1474.5,1971.5C 1465,1996.84 1448.67,2016.68 1425.5,2031C 1406.26,2041.78 1385.59,2047.78 1363.5,2049C 1335.12,2118.84 1283.12,2156.01 1207.5,2160.5C 1207.17,2106.26 1207.5,2052.1 1208.5,1998C 1260.42,1993.06 1304.25,1971.89 1340,1934.5C 1352.54,1919.93 1362.71,1903.77 1370.5,1886C 1402.53,1883.55 1431.86,1873.55 1458.5,1856C 1465.32,1850.35 1471.65,1844.18 1477.5,1837.5C 1504.29,1835.96 1529.29,1828.46 1552.5,1815C 1586.05,1794.62 1614.71,1768.79 1638.5,1737.5 Z"/></g>
<g><path style="opacity:1" fill="#b6b7b5" d="M 2896.5,1741.5 C 2898.02,1741.51 2899.18,1742.18 2900,1743.5C 2929.33,1782.91 2966.5,1812.41 3011.5,1832C 3026.99,1837.64 3042.99,1840.8 3059.5,1841.5C 3080.99,1865.42 3107.66,1880.25 3139.5,1886C 3148.48,1887.72 3157.48,1889.22 3166.5,1890.5C 3193.05,1947.23 3236.72,1982.73 3297.5,1997C 3307.82,1999.03 3318.15,2000.86 3328.5,2002.5C 3329.5,2056.5 3329.83,2110.5 3329.5,2164.5C 3254.36,2160.47 3202.69,2123.8 3174.5,2054.5C 3132.28,2051.65 3098.78,2033.32 3074,1999.5C 3068.8,1992.1 3064.96,1984.1 3062.5,1975.5C 3058.31,1976.51 3054.31,1978.01 3050.5,1980C 3034.13,1982.53 3018.8,1979.53 3004.5,1971C 2985.46,1958.96 2969.29,1943.8 2956,1925.5C 2950.17,1917 2944.33,1908.5 2938.5,1900C 2937.17,1899.33 2935.83,1898.67 2934.5,1898C 2902.63,1898.65 2877.47,1886.15 2859,1860.5C 2849.51,1846.68 2842.01,1831.85 2836.5,1816C 2855.94,1790.73 2875.94,1765.89 2896.5,1741.5 Z"/></g>
<g><path style="opacity:1" fill="#d9cd29" d="M 2398.5,1813.5 C 2418.19,1813.27 2437.85,1813.77 2457.5,1815C 2444.69,1827.9 2431.69,1840.56 2418.5,1853C 2431.37,1849.87 2444.37,1847.2 2457.5,1845C 2437.5,1863.67 2417.5,1882.33 2397.5,1901C 2411.45,1899.61 2425.45,1898.61 2439.5,1898C 2401.33,1928.54 2363,1958.54 2324.5,1988C 2345.83,1957.33 2367.17,1926.67 2388.5,1896C 2386.83,1895.33 2385.17,1895.33 2383.5,1896C 2370.9,1899.65 2358.23,1902.65 2345.5,1905C 2361.83,1889.33 2378.17,1873.67 2394.5,1858C 2381.51,1859.42 2368.51,1860.75 2355.5,1862C 2370.19,1846.08 2384.53,1829.92 2398.5,1813.5 Z"/></g>
<g><path style="opacity:1" fill="#fefefe" d="M 2031.5,2143.5 C 2013.91,2144.49 1996.24,2144.82 1978.5,2144.5C 1931.33,2107.5 1884,2070.67 1836.5,2034C 1830.17,2033.33 1823.83,2033.33 1817.5,2034C 1785.76,2060.95 1753.93,2087.79 1722,2114.5C 1721.5,2015.83 1721.33,1917.17 1721.5,1818.5C 1940.83,1816.54 2160.16,1815.71 2379.5,1816C 2361.4,1836.85 2343.07,1857.52 2324.5,1878C 2335.87,1876.99 2347.2,1875.99 2358.5,1875C 2340.17,1892.67 2321.83,1910.33 2303.5,1928C 2322,1923.37 2340.67,1919.37 2359.5,1916C 2327.4,1960.75 2296.24,2005.92 2266,2051.5C 2337.56,1994.31 2409.39,1937.47 2481.5,1881C 2465.18,1882.48 2448.84,1883.81 2432.5,1885C 2456.32,1863.35 2479.98,1841.52 2503.5,1819.5C 2490.33,1822.13 2476.99,1825.46 2463.5,1829.5C 2462.83,1829.33 2462.17,1829.17 2461.5,1829C 2465.83,1824.67 2470.17,1820.33 2474.5,1816C 2573.14,1814.35 2671.81,1814.02 2770.5,1815C 2700.5,1891 2630.5,1967 2560.5,2043C 2507.86,2076.32 2455.53,2110.16 2403.5,2144.5C 2394.85,2145.67 2386.19,2145.83 2377.5,2145C 2321.77,2107.61 2265.77,2070.61 2209.5,2034C 2202.5,2033.33 2195.5,2033.33 2188.5,2034C 2135.99,2070.36 2083.65,2106.86 2031.5,2143.5 Z"/></g>
<g><path style="opacity:1" fill="#c11834" d="M 2682.5,2890.5 C 2682.5,2572.17 2682.5,2253.83 2682.5,1935.5C 2718.96,1895.2 2755.63,1855.04 2792.5,1815C 2800.49,1814.5 2808.49,1814.33 2816.5,1814.5C 2816.67,2110.17 2816.5,2405.83 2816,2701.5C 2777.87,2769.13 2733.37,2832.13 2682.5,2890.5 Z"/></g>
<g><path style="opacity:1" fill="#7e7e7e" d="M 1699.5,1917.5 C 1698.83,1897.17 1698.17,1876.83 1697.5,1856.5C 1697.78,1855.71 1698.28,1855.04 1699,1854.5C 1699.5,1875.5 1699.67,1896.5 1699.5,1917.5 Z"/></g>
<g><path style="opacity:1" fill="#fbfbfb" d="M 1697.5,1856.5 C 1698.17,1876.83 1698.83,1897.17 1699.5,1917.5C 1700.2,2010.5 1700.7,2103.5 1701,2196.5C 1689.98,2213.85 1676.48,2229.02 1660.5,2242C 1647.93,2251.81 1633.93,2255.31 1618.5,2252.5C 1618.5,2138.17 1618.5,2023.83 1618.5,1909.5C 1619.79,1909.74 1620.79,1909.4 1621.5,1908.5C 1624.25,1908.73 1626.92,1908.39 1629.5,1907.5C 1630.5,1970.83 1630.83,2034.16 1630.5,2097.5C 1635.83,2097.5 1641.17,2097.5 1646.5,2097.5C 1646.33,2032.5 1646.5,1967.5 1647,1902.5C 1652.29,1900.36 1657.29,1897.69 1662,1894.5C 1662.5,1953.5 1662.67,2012.5 1662.5,2071.5C 1667.83,2071.5 1673.17,2071.5 1678.5,2071.5C 1678.33,2007.83 1678.5,1944.17 1679,1880.5C 1686.39,1873.37 1692.55,1865.37 1697.5,1856.5 Z"/></g>
<g><path style="opacity:1" fill="#7f7f7f" d="M 2839.5,1860.5 C 2838.83,1886.17 2838.17,1911.83 2837.5,1937.5C 2837.17,1911.49 2837.5,1885.49 2838.5,1859.5C 2839.11,1859.62 2839.44,1859.96 2839.5,1860.5 Z"/></g>
<g><path style="opacity:1" fill="#fbfbfb" d="M 2839.5,1860.5 C 2844.45,1869.37 2850.61,1877.37 2858,1884.5C 2858.5,1948.17 2858.67,2011.83 2858.5,2075.5C 2863.83,2075.5 2869.17,2075.5 2874.5,2075.5C 2874.33,2016.5 2874.5,1957.5 2875,1898.5C 2879.59,1901.55 2884.43,1904.21 2889.5,1906.5C 2890.5,1971.5 2890.83,2036.5 2890.5,2101.5C 2895.83,2101.5 2901.17,2101.5 2906.5,2101.5C 2906.33,2038.17 2906.5,1974.83 2907,1911.5C 2911.07,1912.46 2915.23,1912.8 2919.5,1912.5C 2919.5,2027.5 2919.5,2142.5 2919.5,2257.5C 2903.63,2259.04 2889.29,2255.2 2876.5,2246C 2860.52,2233.02 2847.02,2217.85 2836,2200.5C 2836.37,2112.84 2836.87,2025.17 2837.5,1937.5C 2838.17,1911.83 2838.83,1886.17 2839.5,1860.5 Z"/></g>
<g><path style="opacity:1" fill="#060606" d="M 2054.5,1898.5 C 2057.29,1897.52 2060.29,1897.19 2063.5,1897.5C 2080.55,1900.69 2095.88,1907.69 2109.5,1918.5C 2123.06,1907.22 2138.39,1899.39 2155.5,1895C 2160.83,1894.33 2166.17,1894.33 2171.5,1895C 2161.65,1898.59 2152.32,1903.26 2143.5,1909C 2132.03,1917.47 2120.87,1926.3 2110,1935.5C 2095.66,1922.75 2080.16,1911.58 2063.5,1902C 2060.51,1900.73 2057.51,1899.56 2054.5,1898.5 Z"/></g>
<g><path style="opacity:1" fill="#7f807f" d="M 2063.5,1897.5 C 2060.29,1897.19 2057.29,1897.52 2054.5,1898.5C 2053.71,1898.22 2053.04,1897.72 2052.5,1897C 2056.36,1896.19 2060.02,1896.36 2063.5,1897.5 Z"/></g>
<g><path style="opacity:1" fill="#7f7f7f" d="M 1621.5,1908.5 C 1620.79,1909.4 1619.79,1909.74 1618.5,1909.5C 1618.5,2023.83 1618.5,2138.17 1618.5,2252.5C 1617.5,2138 1617.17,2023.33 1617.5,1908.5C 1618.83,1908.5 1620.17,1908.5 1621.5,1908.5 Z"/></g>
<g><path style="opacity:1" fill="#fdfdfd" d="M 1489.5,2391.5 C 1487.5,2391.5 1485.5,2391.5 1483.5,2391.5C 1483.5,2258.83 1483.5,2126.17 1483.5,1993.5C 1489.57,1993.04 1495.74,1992.71 1502,1992.5C 1502.5,2068.5 1502.67,2144.5 1502.5,2220.5C 1507.83,2220.5 1513.17,2220.5 1518.5,2220.5C 1519.17,2143.6 1519.84,2066.6 1520.5,1989.5C 1528.49,1987.01 1536.15,1983.68 1543.5,1979.5C 1544.5,2047.5 1544.83,2115.5 1544.5,2183.5C 1549.83,2183.5 1555.17,2183.5 1560.5,2183.5C 1560.17,2111.16 1560.5,2038.83 1561.5,1966.5C 1577.01,1953.41 1590.18,1938.41 1601,1921.5C 1601.67,2032.17 1601.67,2142.83 1601,2253.5C 1599.62,2254.55 1598.62,2255.88 1598,2257.5C 1588.57,2291.44 1573.57,2322.77 1553,2351.5C 1539.91,2368.6 1523.41,2381.1 1503.5,2389C 1498.92,2390.36 1494.25,2391.2 1489.5,2391.5 Z"/></g>
<g><path style="opacity:1" fill="#7f7f7f" d="M 2937.5,1927.5 C 2936.5,2037.33 2936.17,2147.33 2936.5,2257.5C 2935.33,2147 2935.17,2036.33 2936,1925.5C 2936.72,1926.04 2937.22,1926.71 2937.5,1927.5 Z"/></g>
<g><path style="opacity:1" fill="#fbfbfb" d="M 2937.5,1927.5 C 2947.97,1943.65 2960.64,1957.98 2975.5,1970.5C 2976.5,2043.16 2976.83,2115.83 2976.5,2188.5C 2981.83,2188.5 2987.17,2188.5 2992.5,2188.5C 2992.17,2120.16 2992.5,2051.83 2993.5,1983.5C 3001.33,1988.05 3009.5,1991.72 3018,1994.5C 3018.5,2071.17 3018.67,2147.83 3018.5,2224.5C 3023.83,2224.5 3029.17,2224.5 3034.5,2224.5C 3034.5,2148.83 3034.5,2073.17 3034.5,1997.5C 3041.09,1996.97 3047.59,1996.97 3054,1997.5C 3054.5,2130.5 3054.67,2263.5 3054.5,2396.5C 3035.14,2395.44 3018.14,2388.6 3003.5,2376C 2980.11,2353.4 2962.61,2326.9 2951,2296.5C 2946.66,2283.31 2941.83,2270.31 2936.5,2257.5C 2936.17,2147.33 2936.5,2037.33 2937.5,1927.5 Z"/></g>
<g><path style="opacity:1" fill="#fefefe" d="M 2682.5,1935.5 C 2682.5,2253.83 2682.5,2572.17 2682.5,2890.5C 2642.29,2937.38 2597.96,2979.72 2549.5,3017.5C 2548.5,2705.67 2548.17,2393.67 2548.5,2081.5C 2592.83,2032.51 2637.49,1983.84 2682.5,1935.5 Z"/></g>
<g><path style="opacity:1" fill="#060606" d="M 1974.5,1958.5 C 1980.18,1958.33 1985.84,1958.5 1991.5,1959C 1973.11,1967.55 1956.78,1979.05 1942.5,1993.5C 1928.75,1980.45 1913.41,1969.62 1896.5,1961C 1913.77,1960.05 1928.93,1965.22 1942,1976.5C 1951.55,1967.98 1962.39,1961.98 1974.5,1958.5 Z"/></g>
<g><path style="opacity:1" fill="#7f7f7f" d="M 1520.5,1989.5 C 1519.84,2066.6 1519.17,2143.6 1518.5,2220.5C 1517.84,2143.16 1518.5,2066.16 1520.5,1989.5 Z"/></g>
<g><path style="opacity:1" fill="#7f7f7f" d="M 1483.5,1993.5 C 1483.5,2126.17 1483.5,2258.83 1483.5,2391.5C 1485.5,2391.5 1487.5,2391.5 1489.5,2391.5C 1487.39,2392.47 1485.06,2392.8 1482.5,2392.5C 1482.17,2259.33 1482.5,2126.33 1483.5,1993.5 Z"/></g>
<g><path style="opacity:1" fill="#fcfcfc" d="M 1465.5,2018.5 C 1466.67,2147.33 1466.83,2276.33 1466,2405.5C 1452.08,2442.09 1426.91,2467.25 1390.5,2481C 1384.84,2482.33 1379.18,2483.5 1373.5,2484.5C 1373.5,2344.5 1373.5,2204.5 1373.5,2064.5C 1379.85,2063.59 1386.19,2062.59 1392.5,2061.5C 1393.5,2133.16 1393.83,2204.83 1393.5,2276.5C 1398.83,2276.5 1404.17,2276.5 1409.5,2276.5C 1409.33,2203.17 1409.5,2129.83 1410,2056.5C 1415.16,2054.56 1420.16,2052.22 1425,2049.5C 1425.5,2114.17 1425.67,2178.83 1425.5,2243.5C 1430.83,2243.5 1436.17,2243.5 1441.5,2243.5C 1441.17,2175.5 1441.5,2107.5 1442.5,2039.5C 1451.11,2033.56 1458.78,2026.56 1465.5,2018.5 Z"/></g>
<g><path style="opacity:1" fill="#fbfbfb" d="M 3070.5,2022.5 C 3077.89,2030.22 3085.89,2037.22 3094.5,2043.5C 3095.5,2111.5 3095.83,2179.5 3095.5,2247.5C 3100.83,2247.5 3106.17,2247.5 3111.5,2247.5C 3111.33,2182.83 3111.5,2118.17 3112,2053.5C 3116.63,2056.23 3121.47,2058.57 3126.5,2060.5C 3127.5,2134.16 3127.83,2207.83 3127.5,2281.5C 3132.83,2281.5 3138.17,2281.5 3143.5,2281.5C 3143.17,2209.5 3143.5,2137.5 3144.5,2065.5C 3150.14,2066.59 3155.8,2067.59 3161.5,2068.5C 3162.65,2068.82 3163.48,2069.48 3164,2070.5C 3164.67,2210.17 3164.67,2349.83 3164,2489.5C 3127.49,2482.33 3099.82,2462.66 3081,2430.5C 3077.38,2423.59 3074.04,2416.59 3071,2409.5C 3070.5,2280.5 3070.33,2151.5 3070.5,2022.5 Z"/></g>
<g><path style="opacity:1" fill="#fafafa" d="M 2087.5,2144.5 C 2074.32,2144.83 2061.32,2144.5 2048.5,2143.5C 2094.12,2112.39 2139.62,2081.05 2185,2049.5C 2184.31,2056.77 2182.14,2063.6 2178.5,2070C 2148.14,2094.84 2117.8,2119.67 2087.5,2144.5 Z"/></g>
<g><path style="opacity:1" fill="#fafafa" d="M 2357.5,2143.5 C 2343.68,2144.5 2329.68,2144.83 2315.5,2144.5C 2282.25,2119.75 2249.75,2094.08 2218,2067.5C 2216.64,2061.4 2215.31,2055.4 2214,2049.5C 2261.78,2080.97 2309.61,2112.3 2357.5,2143.5 Z"/></g>
<g><path style="opacity:1" fill="#f9f9f9" d="M 1842.5,2052.5 C 1882.29,2083.12 1921.96,2113.95 1961.5,2145C 1950.17,2145.67 1938.83,2145.67 1927.5,2145C 1901.3,2120.46 1874.8,2096.3 1848,2072.5C 1846.16,2065.82 1844.33,2059.15 1842.5,2052.5 Z"/></g>
<g><path style="opacity:1" fill="#fbfbfb" d="M 1731.5,2144.5 C 1728.5,2144.5 1725.5,2144.5 1722.5,2144.5C 1722.5,2138.83 1722.5,2133.17 1722.5,2127.5C 1752.46,2102.71 1782.29,2077.71 1812,2052.5C 1811.13,2058.97 1809.46,2065.31 1807,2071.5C 1781.94,2096.06 1756.77,2120.4 1731.5,2144.5 Z"/></g>
<g><path style="opacity:1" fill="#fcfcfc" d="M 1849.5,2143.5 C 1835.01,2144.5 1820.34,2144.83 1805.5,2144.5C 1811.58,2119.68 1818.24,2095.01 1825.5,2070.5C 1828.41,2069.21 1830.24,2070.21 1831,2073.5C 1836.89,2096.94 1843.06,2120.27 1849.5,2143.5 Z"/></g>
<g><path style="opacity:1" fill="#f8f8f8" d="M 2196.5,2069.5 C 2198.77,2069.14 2200.6,2069.81 2202,2071.5C 2208.71,2096.07 2215.54,2120.57 2222.5,2145C 2207.17,2145.67 2191.83,2145.67 2176.5,2145C 2184.11,2120.11 2190.78,2094.94 2196.5,2069.5 Z"/></g>
<g><path style="opacity:1" fill="#fafafa" d="M 2467.5,2144.5 C 2452.66,2144.83 2437.99,2144.5 2423.5,2143.5C 2459.47,2120.18 2495.47,2096.84 2531.5,2073.5C 2531.83,2073.67 2532.17,2073.83 2532.5,2074C 2511,2097.67 2489.33,2121.17 2467.5,2144.5 Z"/></g>
<g><path style="opacity:1" fill="#df8a99" d="M 2548.5,2081.5 C 2548.17,2393.67 2548.5,2705.67 2549.5,3017.5C 2549.16,3018.34 2548.49,3018.67 2547.5,3018.5C 2547.5,2706.5 2547.5,2394.5 2547.5,2082.5C 2547.5,2081.83 2547.83,2081.5 2548.5,2081.5 Z"/></g>
<g><path style="opacity:1" fill="#c01633" d="M 2547.5,2082.5 C 2547.5,2394.5 2547.5,2706.5 2547.5,3018.5C 2502.81,3054.2 2454.14,3083.87 2401.5,3107.5C 2401.5,2866.17 2401.5,2624.83 2401.5,2383.5C 2410.3,2345.78 2419.97,2308.28 2430.5,2271C 2430.39,2269.28 2429.89,2269.11 2429,2270.5C 2420.37,2285.61 2411.2,2300.27 2401.5,2314.5C 2401.5,2290.17 2401.5,2265.83 2401.5,2241.5C 2449.94,2188.27 2498.61,2135.27 2547.5,2082.5 Z"/></g>
<g><path style="opacity:1" fill="#fbfbfb" d="M 2160.5,2143.5 C 2141.91,2144.49 2123.24,2144.82 2104.5,2144.5C 2127.84,2125.07 2151.34,2105.73 2175,2086.5C 2170.62,2105.55 2165.79,2124.55 2160.5,2143.5 Z"/></g>
<g><path style="opacity:1" fill="#fbfbfb" d="M 2296.5,2143.5 C 2277.34,2144.5 2258.01,2144.83 2238.5,2144.5C 2234.01,2125.71 2229.01,2107.05 2223.5,2088.5C 2223.83,2088.17 2224.17,2087.83 2224.5,2087.5C 2248.53,2106.18 2272.53,2124.84 2296.5,2143.5 Z"/></g>
<g><path style="opacity:1" fill="#fbfbfb" d="M 1910.5,2143.5 C 1895.93,2144.82 1881.26,2144.82 1866.5,2143.5C 1862.16,2126.46 1857.99,2109.46 1854,2092.5C 1873,2109.34 1891.84,2126.34 1910.5,2143.5 Z"/></g>
<g><path style="opacity:1" fill="#fbfbfb" d="M 1788.5,2144.5 C 1774.66,2144.83 1760.99,2144.5 1747.5,2143.5C 1765.8,2126.37 1783.96,2109.04 1802,2091.5C 1797.36,2109.05 1792.86,2126.72 1788.5,2144.5 Z"/></g>
<g><path style="opacity:1" fill="#7f7f7f" d="M 1355.5,2098.5 C 1355.56,2097.96 1355.89,2097.62 1356.5,2097.5C 1357.83,2230.33 1357.83,2363 1356.5,2495.5C 1356.83,2363 1356.5,2230.67 1355.5,2098.5 Z"/></g>
<g><path style="opacity:1" fill="#fdfdfd" d="M 1355.5,2098.5 C 1356.5,2230.67 1356.83,2363 1356.5,2495.5C 1337.68,2537.82 1306.68,2567.32 1263.5,2584C 1245.7,2590.63 1227.37,2595.13 1208.5,2597.5C 1208.5,2457.5 1208.5,2317.5 1208.5,2177.5C 1209.79,2177.74 1210.79,2177.4 1211.5,2176.5C 1215.48,2175.98 1219.48,2175.65 1223.5,2175.5C 1224.17,2251.83 1224.83,2328.17 1225.5,2404.5C 1230.83,2404.5 1236.17,2404.5 1241.5,2404.5C 1241.5,2326.83 1241.5,2249.17 1241.5,2171.5C 1250.32,2170.14 1258.99,2168.14 1267.5,2165.5C 1268.5,2239.16 1268.83,2312.83 1268.5,2386.5C 1273.83,2386.5 1279.17,2386.5 1284.5,2386.5C 1284.17,2310.5 1284.5,2234.5 1285.5,2158.5C 1294.32,2154.59 1302.65,2149.93 1310.5,2144.5C 1311.5,2207.16 1311.83,2269.83 1311.5,2332.5C 1316.83,2332.5 1322.17,2332.5 1327.5,2332.5C 1327.17,2265.16 1327.5,2197.83 1328.5,2130.5C 1339,2121.01 1348,2110.34 1355.5,2098.5 Z"/></g>
<g><path style="opacity:1" fill="#fdfdfd" d="M 3225.5,2336.5 C 3226.17,2274.17 3226.83,2211.83 3227.5,2149.5C 3235.19,2154.34 3243.19,2158.68 3251.5,2162.5C 3252.5,2238.5 3252.83,2314.5 3252.5,2390.5C 3257.83,2390.5 3263.17,2390.5 3268.5,2390.5C 3268.17,2316.83 3268.5,2243.16 3269.5,2169.5C 3277.61,2172.44 3285.94,2174.61 3294.5,2176C 3295.5,2253.43 3295.83,2330.93 3295.5,2408.5C 3300.83,2408.5 3306.17,2408.5 3311.5,2408.5C 3311.5,2332.17 3311.5,2255.83 3311.5,2179.5C 3315.86,2179.59 3320.19,2179.92 3324.5,2180.5C 3325.57,2181.43 3326.9,2181.77 3328.5,2181.5C 3328.5,2321.5 3328.5,2461.5 3328.5,2601.5C 3287.68,2597.48 3251.68,2582.31 3220.5,2556C 3203.85,2540.35 3190.68,2522.18 3181,2501.5C 3180.33,2368.5 3180.33,2235.5 3181,2102.5C 3189.21,2114.38 3198.54,2125.38 3209,2135.5C 3209.5,2202.5 3209.67,2269.5 3209.5,2336.5C 3214.83,2336.5 3220.17,2336.5 3225.5,2336.5 Z"/></g>
<g><path style="opacity:1" fill="#797979" d="M 1722.5,2127.5 C 1722.5,2133.17 1722.5,2138.83 1722.5,2144.5C 1725.5,2144.5 1728.5,2144.5 1731.5,2144.5C 1728.38,2145.48 1725.04,2145.81 1721.5,2145.5C 1721.18,2139.31 1721.51,2133.31 1722.5,2127.5 Z"/></g>
<g><path style="opacity:1" fill="#7c7c7c" d="M 1747.5,2143.5 C 1760.99,2144.5 1774.66,2144.83 1788.5,2144.5C 1774.66,2145.83 1760.66,2145.83 1746.5,2144.5C 1746.62,2143.89 1746.96,2143.56 1747.5,2143.5 Z"/></g>
<g><path style="opacity:1" fill="#7d7d7d" d="M 1849.5,2143.5 C 1850.04,2143.56 1850.38,2143.89 1850.5,2144.5C 1835.34,2145.83 1820.34,2145.83 1805.5,2144.5C 1820.34,2144.83 1835.01,2144.5 1849.5,2143.5 Z"/></g>
<g><path style="opacity:1" fill="#7c7c7c" d="M 1866.5,2143.5 C 1881.26,2144.82 1895.93,2144.82 1910.5,2143.5C 1911.04,2143.56 1911.38,2143.89 1911.5,2144.5C 1904,2144.83 1896.5,2145.17 1889,2145.5C 1881.14,2145.5 1873.64,2144.83 1866.5,2143.5 Z"/></g>
<g><path style="opacity:1" fill="#7d7d7d" d="M 2031.5,2143.5 C 2023.03,2144.83 2014.19,2145.5 2005,2145.5C 1995.99,2145.5 1987.16,2145.17 1978.5,2144.5C 1996.24,2144.82 2013.91,2144.49 2031.5,2143.5 Z"/></g>
<g><path style="opacity:1" fill="#7c7c7c" d="M 2048.5,2143.5 C 2061.32,2144.5 2074.32,2144.83 2087.5,2144.5C 2074.33,2145.83 2060.99,2145.83 2047.5,2144.5C 2047.62,2143.89 2047.96,2143.56 2048.5,2143.5 Z"/></g>
<g><path style="opacity:1" fill="#7d7d7d" d="M 2160.5,2143.5 C 2151.36,2144.83 2141.86,2145.5 2132,2145.5C 2122.09,2145.51 2112.92,2145.18 2104.5,2144.5C 2123.24,2144.82 2141.91,2144.49 2160.5,2143.5 Z"/></g>
<g><path style="opacity:1" fill="#7c7c7c" d="M 2296.5,2143.5 C 2297.29,2143.78 2297.96,2144.28 2298.5,2145C 2278.33,2145.83 2258.33,2145.66 2238.5,2144.5C 2258.01,2144.83 2277.34,2144.5 2296.5,2143.5 Z"/></g>
<g><path style="opacity:1" fill="#7e7e7e" d="M 2357.5,2143.5 C 2358.04,2143.56 2358.38,2143.89 2358.5,2144.5C 2344.01,2145.83 2329.67,2145.83 2315.5,2144.5C 2329.68,2144.83 2343.68,2144.5 2357.5,2143.5 Z"/></g>
<g><path style="opacity:1" fill="#7b7b7b" d="M 2423.5,2143.5 C 2437.99,2144.5 2452.66,2144.83 2467.5,2144.5C 2452.34,2145.66 2437.01,2145.83 2421.5,2145C 2422.04,2144.28 2422.71,2143.78 2423.5,2143.5 Z"/></g>
<g><path style="opacity:1" fill="#7f807f" d="M 3227.5,2149.5 C 3226.83,2211.83 3226.17,2274.17 3225.5,2336.5C 3225.17,2273.83 3225.5,2211.16 3226.5,2148.5C 3227.11,2148.62 3227.44,2148.96 3227.5,2149.5 Z"/></g>
<g><path style="opacity:1" fill="#fdfefe" d="M 1722.5,2161.5 C 1738.5,2161.33 1754.5,2161.5 1770.5,2162C 1782.7,2174.03 1794.7,2186.2 1806.5,2198.5C 1806.5,2207.17 1806.5,2215.83 1806.5,2224.5C 1794.99,2224.17 1783.65,2224.51 1772.5,2225.5C 1772.5,2230.17 1772.5,2234.83 1772.5,2239.5C 1755.83,2239.5 1739.17,2239.5 1722.5,2239.5C 1722.5,2213.5 1722.5,2187.5 1722.5,2161.5 Z"/></g>
<g><path style="opacity:1" fill="#fcfcfc" d="M 1785.5,2162.5 C 1812.66,2161.34 1840,2161.17 1867.5,2162C 1858.36,2172.14 1848.86,2181.97 1839,2191.5C 1838.5,2202.83 1838.33,2214.16 1838.5,2225.5C 1831.5,2225.5 1824.5,2225.5 1817.5,2225.5C 1817.67,2214.83 1817.5,2204.16 1817,2193.5C 1806.63,2182.96 1796.13,2172.63 1785.5,2162.5 Z"/></g>
<g><path style="opacity:1" fill="#fdfdfe" d="M 2150.5,2239.5 C 2059.17,2239.5 1967.83,2239.5 1876.5,2239.5C 1876.82,2234.64 1876.49,2229.97 1875.5,2225.5C 1867.02,2224.51 1858.35,2224.17 1849.5,2224.5C 1849.5,2215.17 1849.5,2205.83 1849.5,2196.5C 1860.66,2185.17 1871.66,2173.67 1882.5,2162C 1967.08,2161.5 2051.75,2161.5 2136.5,2162C 2148.7,2173.86 2160.53,2186.03 2172,2198.5C 2172.5,2207.49 2172.67,2216.49 2172.5,2225.5C 2165.17,2225.5 2157.83,2225.5 2150.5,2225.5C 2150.5,2230.17 2150.5,2234.83 2150.5,2239.5 Z"/></g>
<g><path style="opacity:1" fill="#fefefe" d="M 2204.5,2224.5 C 2197.5,2224.5 2190.5,2224.5 2183.5,2224.5C 2183.83,2214.32 2183.49,2204.32 2182.5,2194.5C 2172.74,2183.23 2162.4,2172.4 2151.5,2162C 2178.83,2161.33 2206.17,2161.33 2233.5,2162C 2223.64,2171.53 2214.14,2181.36 2205,2191.5C 2204.5,2202.49 2204.33,2213.49 2204.5,2224.5 Z"/></g>
<g><path style="opacity:1" fill="#fcfcfc" d="M 2232.5,2224.5 C 2226.83,2224.5 2221.17,2224.5 2215.5,2224.5C 2215.5,2214.83 2215.5,2205.17 2215.5,2195.5C 2226.27,2184.23 2237.27,2173.06 2248.5,2162C 2254.5,2161.33 2260.5,2161.33 2266.5,2162C 2255.03,2172.47 2243.86,2183.3 2233,2194.5C 2232.5,2204.49 2232.33,2214.49 2232.5,2224.5 Z"/></g>
<g><path style="opacity:1" fill="#fefefe" d="M 2380.5,2238.5 C 2343.95,2239.15 2307.61,2238.48 2271.5,2236.5C 2270.22,2227.48 2269.22,2227.82 2268.5,2237.5C 2263.93,2238.44 2259.26,2238.77 2254.5,2238.5C 2254.82,2233.97 2254.48,2229.63 2253.5,2225.5C 2250.38,2224.52 2247.04,2224.19 2243.5,2224.5C 2243.82,2218.31 2243.49,2212.31 2242.5,2206.5C 2242.34,2204.14 2242.5,2201.81 2243,2199.5C 2256.14,2187.36 2268.97,2174.86 2281.5,2162C 2338.08,2161.55 2394.75,2161.55 2451.5,2162C 2427.97,2187.7 2404.3,2213.2 2380.5,2238.5 Z"/></g>
<g><path style="opacity:1" fill="#7f7f7f" d="M 1223.5,2175.5 C 1223.56,2174.96 1223.89,2174.62 1224.5,2174.5C 1225.5,2251.16 1225.83,2327.83 1225.5,2404.5C 1224.83,2328.17 1224.17,2251.83 1223.5,2175.5 Z"/></g>
<g><path style="opacity:1" fill="#7f7f7f" d="M 1211.5,2176.5 C 1210.79,2177.4 1209.79,2177.74 1208.5,2177.5C 1208.5,2317.5 1208.5,2457.5 1208.5,2597.5C 1207.5,2457.33 1207.17,2317 1207.5,2176.5C 1208.83,2176.5 1210.17,2176.5 1211.5,2176.5 Z"/></g>
<g><path style="opacity:1" fill="#7f7f7f" d="M 3324.5,2180.5 C 3326.17,2180.5 3327.83,2180.5 3329.5,2180.5C 3329.83,2321 3329.5,2461.33 3328.5,2601.5C 3328.5,2461.5 3328.5,2321.5 3328.5,2181.5C 3326.9,2181.77 3325.57,2181.43 3324.5,2180.5 Z"/></g>
<g><path style="opacity:1" fill="#7e7e7e" d="M 2182.5,2194.5 C 2183.49,2204.32 2183.83,2214.32 2183.5,2224.5C 2190.5,2224.5 2197.5,2224.5 2204.5,2224.5C 2197.35,2225.49 2190.02,2225.82 2182.5,2225.5C 2182.5,2215.17 2182.5,2204.83 2182.5,2194.5 Z"/></g>
<g><path style="opacity:1" fill="#7e7e7e" d="M 1849.5,2196.5 C 1849.5,2205.83 1849.5,2215.17 1849.5,2224.5C 1858.35,2224.17 1867.02,2224.51 1875.5,2225.5C 1866.5,2225.5 1857.5,2225.5 1848.5,2225.5C 1848.17,2215.65 1848.51,2205.99 1849.5,2196.5 Z"/></g>
<g><path style="opacity:1" fill="#7c7c7c" d="M 2215.5,2195.5 C 2215.5,2205.17 2215.5,2214.83 2215.5,2224.5C 2221.17,2224.5 2226.83,2224.5 2232.5,2224.5C 2226.69,2225.49 2220.69,2225.82 2214.5,2225.5C 2214.17,2215.32 2214.51,2205.32 2215.5,2195.5 Z"/></g>
<g><path style="opacity:1" fill="#7e7e7e" d="M 2242.5,2206.5 C 2243.49,2212.31 2243.82,2218.31 2243.5,2224.5C 2247.04,2224.19 2250.38,2224.52 2253.5,2225.5C 2249.83,2225.5 2246.17,2225.5 2242.5,2225.5C 2242.5,2219.17 2242.5,2212.83 2242.5,2206.5 Z"/></g>
<g><path style="opacity:1" fill="#7e7e7e" d="M 1806.5,2198.5 C 1807.49,2207.32 1807.83,2216.32 1807.5,2225.5C 1795.83,2225.5 1784.17,2225.5 1772.5,2225.5C 1783.65,2224.51 1794.99,2224.17 1806.5,2224.5C 1806.5,2215.83 1806.5,2207.17 1806.5,2198.5 Z"/></g>
<g><path style="opacity:1" fill="#b6b7b6" d="M 1699.5,2226.5 C 1700.17,2257.66 1700.5,2289 1700.5,2320.5C 1700.66,2352.58 1700.16,2384.58 1699,2416.5C 1685.71,2434.8 1669.54,2449.96 1650.5,2462C 1634.18,2470.06 1616.84,2474.06 1598.5,2474C 1597.17,2474.67 1595.83,2475.33 1594.5,2476C 1576.52,2506.32 1553.85,2532.65 1526.5,2555C 1514.33,2563.66 1500.83,2569.16 1486,2571.5C 1482.14,2570.89 1478.31,2570.23 1474.5,2569.5C 1465.73,2603.53 1446.73,2630.36 1417.5,2650C 1400.86,2658.6 1383.19,2664.1 1364.5,2666.5C 1339.97,2724.86 1296.64,2760.36 1234.5,2773C 1225.6,2775.02 1216.77,2776.18 1208,2776.5C 1207.33,2722.5 1207.33,2668.5 1208,2614.5C 1251.44,2609.58 1290.28,2593.75 1324.5,2567C 1345.03,2548.42 1361.03,2526.58 1372.5,2501.5C 1414.12,2495.12 1445.95,2474.12 1468,2438.5C 1473.36,2429.11 1478.19,2419.45 1482.5,2409.5C 1505.55,2407.88 1525.88,2399.71 1543.5,2385C 1568.03,2362.47 1586.53,2335.64 1599,2304.5C 1604.02,2292.79 1608.19,2280.79 1611.5,2268.5C 1630.42,2272.22 1648.09,2269.05 1664.5,2259C 1677.92,2250.08 1689.59,2239.25 1699.5,2226.5 Z"/></g>
<g><path style="opacity:1" fill="#b6b7b6" d="M 2836.5,2230.5 C 2846.71,2242.21 2858.04,2252.71 2870.5,2262C 2887.36,2272.96 2905.7,2276.46 2925.5,2272.5C 2936.64,2314.63 2956.97,2351.46 2986.5,2383C 3005.59,2401.22 3028.26,2411.22 3054.5,2413C 3067.92,2449.74 3091.92,2477.08 3126.5,2495C 3131.39,2497.28 3136.39,2499.28 3141.5,2501C 3149.57,2502.65 3157.57,2504.48 3165.5,2506.5C 3188.07,2555.9 3225.07,2589.4 3276.5,2607C 3285.11,2609.46 3293.78,2611.79 3302.5,2614C 3311.39,2615.45 3320.22,2616.95 3329,2618.5C 3329.67,2672.5 3329.67,2726.5 3329,2780.5C 3279.29,2777.31 3237.29,2757.64 3203,2721.5C 3190.29,2706.09 3180.12,2689.09 3172.5,2670.5C 3131.17,2666.42 3099.67,2646.76 3078,2611.5C 3070.97,2599.39 3065.3,2586.72 3061,2573.5C 3054.6,2575.95 3048.1,2576.12 3041.5,2574C 3023.99,2568.58 3008.66,2559.58 2995.5,2547C 2974.79,2526.97 2957.12,2504.63 2942.5,2480C 2941.17,2479.33 2939.83,2478.67 2938.5,2478C 2911.63,2478.38 2887.97,2470.05 2867.5,2453C 2855.85,2442.69 2845.68,2431.19 2837,2418.5C 2836.5,2355.83 2836.33,2293.17 2836.5,2230.5 Z"/></g>
<g><path style="opacity:1" fill="#82a7c3" d="M 2268.5,2237.5 C 2268.5,2238.17 2268.5,2238.83 2268.5,2239.5C 2263.64,2239.82 2258.97,2239.49 2254.5,2238.5C 2259.26,2238.77 2263.93,2238.44 2268.5,2237.5 Z"/></g>
<g><path style="opacity:1" fill="#87afcc" d="M 2271.5,2236.5 C 2307.61,2238.48 2343.95,2239.15 2380.5,2238.5C 2380.5,2239.17 2380.17,2239.5 2379.5,2239.5C 2343.83,2239.5 2308.17,2239.5 2272.5,2239.5C 2271.6,2238.79 2271.26,2237.79 2271.5,2236.5 Z"/></g>
<g><path style="opacity:1" fill="#11619e" d="M 1722.5,2161.5 C 1722.5,2187.5 1722.5,2213.5 1722.5,2239.5C 1739.17,2239.5 1755.83,2239.5 1772.5,2239.5C 1806.48,2241.49 1840.82,2242.16 1875.5,2241.5C 1875.5,2236.17 1875.5,2230.83 1875.5,2225.5C 1876.49,2229.97 1876.82,2234.64 1876.5,2239.5C 1967.83,2239.5 2059.17,2239.5 2150.5,2239.5C 2184.48,2241.49 2218.82,2242.16 2253.5,2241.5C 2253.5,2236.17 2253.5,2230.83 2253.5,2225.5C 2254.48,2229.63 2254.82,2233.97 2254.5,2238.5C 2258.97,2239.49 2263.64,2239.82 2268.5,2239.5C 2265.26,2255.95 2261.93,2272.28 2258.5,2288.5C 2241.17,2288.5 2223.83,2288.5 2206.5,2288.5C 2202.72,2279.35 2199.22,2270.01 2196,2260.5C 2195.46,2269.84 2194.96,2279.17 2194.5,2288.5C 2166.66,2288.17 2138.99,2288.5 2111.5,2289.5C 2108.87,2286.92 2106.7,2283.92 2105,2280.5C 2104.57,2283.32 2105.07,2285.99 2106.5,2288.5C 2047.5,2288.5 1988.5,2288.5 1929.5,2288.5C 1929.18,2293.03 1929.52,2297.37 1930.5,2301.5C 1990.51,2302.16 2050.18,2301.5 2109.5,2299.5C 2126.95,2359.31 2143.79,2419.31 2160,2479.5C 2046.32,2603.34 1932.49,2727.01 1818.5,2850.5C 1782.38,2805.63 1750.22,2757.97 1722,2707.5C 1721.17,2525.33 1721.33,2343.33 1722.5,2161.5 Z"/></g>
<g><path style="opacity:1" fill="#10619d" d="M 2272.5,2239.5 C 2308.17,2239.5 2343.83,2239.5 2379.5,2239.5C 2369.91,2251.26 2359.74,2262.59 2349,2273.5C 2348.09,2267.53 2347.43,2261.53 2347,2255.5C 2342,2267.83 2337,2280.17 2332,2292.5C 2317.72,2308.07 2303.22,2323.4 2288.5,2338.5C 2282.24,2305.67 2276.91,2272.67 2272.5,2239.5 Z"/></g>
<g><path style="opacity:1" fill="#fbfbfb" d="M 2401.5,2241.5 C 2401.5,2265.83 2401.5,2290.17 2401.5,2314.5C 2384.94,2341.94 2368.11,2369.28 2351,2396.5C 2349.69,2369.06 2348.86,2341.56 2348.5,2314C 2348.83,2308.5 2349.17,2303 2349.5,2297.5C 2366.49,2278.51 2383.82,2259.85 2401.5,2241.5 Z"/></g>
<g><path style="opacity:1" fill="#87b0ce" d="M 2106.5,2288.5 C 2106.5,2288.83 2106.5,2289.17 2106.5,2289.5C 2047.83,2289.5 1989.17,2289.5 1930.5,2289.5C 1930.5,2293.5 1930.5,2297.5 1930.5,2301.5C 1929.52,2297.37 1929.18,2293.03 1929.5,2288.5C 1988.5,2288.5 2047.5,2288.5 2106.5,2288.5 Z"/></g>
<g><path style="opacity:1" fill="#87abc6" d="M 2194.5,2288.5 C 2194.81,2292.04 2194.48,2295.38 2193.5,2298.5C 2193.5,2295.5 2193.5,2292.5 2193.5,2289.5C 2166.33,2289.17 2139.33,2289.5 2112.5,2290.5C 2111.83,2290.5 2111.5,2290.17 2111.5,2289.5C 2138.99,2288.5 2166.66,2288.17 2194.5,2288.5 Z"/></g>
<g><path style="opacity:1" fill="#89b0cd" d="M 2206.5,2288.5 C 2223.83,2288.5 2241.17,2288.5 2258.5,2288.5C 2258.5,2288.83 2258.5,2289.17 2258.5,2289.5C 2241.13,2288.85 2224.13,2289.51 2207.5,2291.5C 2206.6,2290.79 2206.26,2289.79 2206.5,2288.5 Z"/></g>
<g><path style="opacity:1" fill="#fefefe" d="M 2106.5,2289.5 C 2107.49,2292.74 2108.49,2296.07 2109.5,2299.5C 2050.18,2301.5 1990.51,2302.16 1930.5,2301.5C 1930.5,2297.5 1930.5,2293.5 1930.5,2289.5C 1989.17,2289.5 2047.83,2289.5 2106.5,2289.5 Z"/></g>
<g><path style="opacity:1" fill="#fefefe" d="M 2193.5,2298.5 C 2193.5,2299.5 2193.5,2300.5 2193.5,2301.5C 2169.17,2301.5 2144.83,2301.5 2120.5,2301.5C 2117.1,2298.37 2114.44,2294.71 2112.5,2290.5C 2139.33,2289.5 2166.33,2289.17 2193.5,2289.5C 2193.5,2292.5 2193.5,2295.5 2193.5,2298.5 Z"/></g>
<g><path style="opacity:1" fill="#fdfdfd" d="M 2258.5,2289.5 C 2258.22,2293.57 2257.55,2297.57 2256.5,2301.5C 2241.17,2301.5 2225.83,2301.5 2210.5,2301.5C 2209.81,2298.06 2208.81,2294.73 2207.5,2291.5C 2224.13,2289.51 2241.13,2288.85 2258.5,2289.5 Z"/></g>
<g><path style="opacity:1" fill="#10609d" d="M 2120.5,2301.5 C 2144.83,2301.5 2169.17,2301.5 2193.5,2301.5C 2192.45,2333.27 2190.62,2364.94 2188,2396.5C 2164.99,2365.13 2142.49,2333.46 2120.5,2301.5 Z"/></g>
<g><path style="opacity:1" fill="#10609c" d="M 2210.5,2301.5 C 2225.83,2301.5 2241.17,2301.5 2256.5,2301.5C 2251.66,2328.89 2246.49,2356.22 2241,2383.5C 2231.1,2356.03 2220.93,2328.7 2210.5,2301.5 Z"/></g>
<g><path style="opacity:1" fill="#dace29" d="M 2331.5,2336.5 C 2332.17,2344.83 2332.83,2353.17 2333.5,2361.5C 2333.98,2392.17 2334.48,2422.83 2335,2453.5C 2352,2426.17 2369,2398.83 2386,2371.5C 2386.17,2372.17 2386.33,2372.83 2386.5,2373.5C 2375.18,2415.79 2364.01,2458.13 2353,2500.5C 2330.48,2488.28 2306.31,2482.28 2280.5,2482.5C 2247.07,2482.82 2215.24,2489.82 2185,2503.5C 2171.44,2458.73 2158.78,2413.73 2147,2368.5C 2165.33,2393.83 2183.67,2419.17 2202,2444.5C 2204.14,2410.51 2206.14,2376.51 2208,2342.5C 2220.86,2377.42 2233.53,2412.42 2246,2447.5C 2253.59,2407.13 2261.25,2366.8 2269,2326.5C 2275.41,2365.82 2281.74,2405.15 2288,2444.5C 2302.76,2408.75 2317.26,2372.75 2331.5,2336.5 Z"/></g>
<g><path style="opacity:1" fill="#f6f9fb" d="M 1722.5,2334.5 C 1770.5,2334.5 1818.5,2334.5 1866.5,2334.5C 1866.5,2338.83 1866.5,2343.17 1866.5,2347.5C 1818.5,2347.5 1770.5,2347.5 1722.5,2347.5C 1722.5,2343.17 1722.5,2338.83 1722.5,2334.5 Z"/></g>
<g><path style="opacity:1" fill="#6a6514" d="M 2333.5,2361.5 C 2332.83,2353.17 2332.17,2344.83 2331.5,2336.5C 2331.78,2335.71 2332.28,2335.04 2333,2334.5C 2333.5,2343.49 2333.67,2352.49 2333.5,2361.5 Z"/></g>
<g><path style="opacity:1" fill="#f1f1f1" d="M 2312.5,2336.5 C 2313.24,2336.37 2313.91,2336.54 2314.5,2337C 2308.06,2352.36 2301.56,2367.53 2295,2382.5C 2293.12,2375.25 2292.12,2367.91 2292,2360.5C 2299.44,2352.9 2306.27,2344.9 2312.5,2336.5 Z"/></g>
<g><path style="opacity:1" fill="#fefefe" d="M 2401.5,2383.5 C 2401.5,2624.83 2401.5,2866.17 2401.5,3107.5C 2362.64,3124.12 2322.64,3137.12 2281.5,3146.5C 2281.5,2956.83 2281.5,2767.17 2281.5,2577.5C 2313.29,2577.65 2338.46,2564.98 2357,2539.5C 2361.71,2531.7 2365.04,2523.37 2367,2514.5C 2377.75,2470.49 2389.25,2426.83 2401.5,2383.5 Z"/></g>
<g><path style="opacity:1" fill="#f6f9fb" d="M 1722.5,2398.5 C 1842.83,2398.5 1963.17,2398.5 2083.5,2398.5C 2083.5,2402.83 2083.5,2407.17 2083.5,2411.5C 1963.17,2411.5 1842.83,2411.5 1722.5,2411.5C 1722.5,2407.17 1722.5,2402.83 1722.5,2398.5 Z"/></g>
<g><path style="opacity:1" fill="#fcfcfc" d="M 1615.5,2772.5 C 1614.85,2761.4 1614.19,2750.4 1613.5,2739.5C 1612.83,2673.5 1612.5,2607.5 1612.5,2541.5C 1612.5,2524.17 1612.5,2506.83 1612.5,2489.5C 1614.1,2489.77 1615.43,2489.43 1616.5,2488.5C 1621.14,2487.87 1625.81,2487.54 1630.5,2487.5C 1630.5,2516.83 1630.5,2546.17 1630.5,2575.5C 1635.83,2575.5 1641.17,2575.5 1646.5,2575.5C 1646.17,2544.16 1646.5,2512.83 1647.5,2481.5C 1652.86,2478.82 1658.19,2476.15 1663.5,2473.5C 1664.17,2503.5 1664.83,2533.5 1665.5,2563.5C 1670.83,2563.5 1676.17,2563.5 1681.5,2563.5C 1681.33,2528.83 1681.5,2494.17 1682,2459.5C 1689.33,2453.5 1696,2446.83 1702,2439.5C 1703.44,2513.83 1704.1,2588.16 1704,2662.5C 1694.09,2691.65 1680.42,2718.98 1663,2744.5C 1654.51,2756.33 1643.68,2765.16 1630.5,2771C 1625.55,2772.05 1620.55,2772.55 1615.5,2772.5 Z"/></g>
<g><path style="opacity:1" fill="#fcfcfc" d="M 2871.5,2567.5 C 2872.17,2537.5 2872.83,2507.5 2873.5,2477.5C 2878.53,2480.68 2883.86,2483.35 2889.5,2485.5C 2890.5,2516.83 2890.83,2548.16 2890.5,2579.5C 2895.83,2579.5 2901.17,2579.5 2906.5,2579.5C 2906.17,2549.83 2906.5,2520.16 2907.5,2490.5C 2911.42,2491.6 2915.42,2492.26 2919.5,2492.5C 2920.92,2493.45 2922.59,2493.78 2924.5,2493.5C 2924.5,2515.17 2924.5,2536.83 2924.5,2558.5C 2924.41,2631.17 2924.07,2703.83 2923.5,2776.5C 2910.65,2777.61 2899.32,2773.78 2889.5,2765C 2877.42,2753.26 2867.25,2740.09 2859,2725.5C 2848.63,2706.11 2839.96,2686.11 2833,2665.5C 2833.04,2591.5 2833.71,2517.5 2835,2443.5C 2840.98,2450.65 2847.48,2457.32 2854.5,2463.5C 2855.5,2498.16 2855.83,2532.83 2855.5,2567.5C 2860.83,2567.5 2866.17,2567.5 2871.5,2567.5 Z"/></g>
<g><path style="opacity:1" fill="#7f807f" d="M 1663.5,2473.5 C 1663.56,2472.96 1663.89,2472.62 1664.5,2472.5C 1665.5,2502.83 1665.83,2533.16 1665.5,2563.5C 1664.83,2533.5 1664.17,2503.5 1663.5,2473.5 Z"/></g>
<g><path style="opacity:1" fill="#87b0ce" d="M 1987.5,2475.5 C 1919.5,2475.5 1851.5,2475.5 1783.5,2475.5C 1783.5,2479.5 1783.5,2483.5 1783.5,2487.5C 1782.52,2483.37 1782.18,2479.03 1782.5,2474.5C 1851,2474.17 1919.34,2474.5 1987.5,2475.5 Z"/></g>
<g><path style="opacity:1" fill="#fefffe" d="M 1987.5,2475.5 C 1987.5,2479.5 1987.5,2483.5 1987.5,2487.5C 1919.5,2487.5 1851.5,2487.5 1783.5,2487.5C 1783.5,2483.5 1783.5,2479.5 1783.5,2475.5C 1851.5,2475.5 1919.5,2475.5 1987.5,2475.5 Z"/></g>
<g><path style="opacity:1" fill="#7f7f7f" d="M 2873.5,2477.5 C 2872.83,2507.5 2872.17,2537.5 2871.5,2567.5C 2871.17,2537.16 2871.5,2506.83 2872.5,2476.5C 2873.11,2476.62 2873.44,2476.96 2873.5,2477.5 Z"/></g>
<g><path style="opacity:1" fill="#7d7d7d" d="M 1616.5,2488.5 C 1615.43,2489.43 1614.1,2489.77 1612.5,2489.5C 1612.5,2506.83 1612.5,2524.17 1612.5,2541.5C 1611.5,2524.01 1611.17,2506.34 1611.5,2488.5C 1613.17,2488.5 1614.83,2488.5 1616.5,2488.5 Z"/></g>
<g><path style="opacity:1" fill="#7f7f7f" d="M 2919.5,2492.5 C 2921.5,2492.5 2923.5,2492.5 2925.5,2492.5C 2925.83,2514.67 2925.5,2536.67 2924.5,2558.5C 2924.5,2536.83 2924.5,2515.17 2924.5,2493.5C 2922.59,2493.78 2920.92,2493.45 2919.5,2492.5 Z"/></g>
<g><path style="opacity:1" fill="#c11834" d="M 2281.5,2577.5 C 2281.5,2767.17 2281.5,2956.83 2281.5,3146.5C 2277.95,3146.84 2274.45,3147.51 2271,3148.5C 2236.06,3142.22 2201.89,3133.06 2168.5,3121C 2156.83,3116.76 2145.49,3111.93 2134.5,3106.5C 2134.5,2915.17 2134.5,2723.83 2134.5,2532.5C 2144.1,2520.56 2154.43,2509.23 2165.5,2498.5C 2167.65,2504.74 2169.48,2511.07 2171,2517.5C 2197.04,2557.27 2233.87,2577.27 2281.5,2577.5 Z"/></g>
<g><path style="opacity:1" fill="#dbcf29" d="M 2270.5,2498.5 C 2297.12,2497.06 2322.12,2502.56 2345.5,2515C 2347.85,2516.19 2348.68,2518.02 2348,2520.5C 2336.4,2544.39 2317.23,2557.89 2290.5,2561C 2250.39,2563.8 2217.72,2549.64 2192.5,2518.5C 2209.4,2510.81 2227.07,2505.31 2245.5,2502C 2253.95,2500.58 2262.28,2499.41 2270.5,2498.5 Z"/></g>
<g><path style="opacity:1" fill="#fcfcfc" d="M 1484.5,2917.5 C 1483.83,2902.83 1483.17,2888.17 1482.5,2873.5C 1481.9,2782.49 1481.4,2691.49 1481,2600.5C 1483.09,2596.65 1484.92,2592.65 1486.5,2588.5C 1494.13,2586.68 1501.8,2585.01 1509.5,2583.5C 1509.5,2616.5 1509.5,2649.5 1509.5,2682.5C 1514.83,2682.5 1520.17,2682.5 1525.5,2682.5C 1525.17,2646.49 1525.5,2610.49 1526.5,2574.5C 1535.71,2569.13 1544.21,2562.8 1552,2555.5C 1552.5,2587.16 1552.67,2618.83 1552.5,2650.5C 1557.83,2650.5 1563.17,2650.5 1568.5,2650.5C 1568.33,2613.17 1568.5,2575.83 1569,2538.5C 1578.39,2528.05 1587.06,2517.05 1595,2505.5C 1596.86,2608.16 1597.53,2710.83 1597,2813.5C 1583.85,2845 1565.35,2872.83 1541.5,2897C 1530.98,2906.76 1518.65,2913.09 1504.5,2916C 1498.64,2916.72 1492.81,2916.55 1487,2915.5C 1485.62,2915.68 1484.79,2916.35 1484.5,2917.5 Z"/></g>
<g><path style="opacity:1" fill="#fcfcfc" d="M 3054.5,2894.5 C 3053.83,2903.17 3053.17,2911.83 3052.5,2920.5C 3037.82,2921.88 3023.82,2919.05 3010.5,2912C 2990.86,2898.7 2975.03,2881.86 2963,2861.5C 2954.01,2847.19 2946.34,2832.19 2940,2816.5C 2939.62,2714.16 2940.29,2611.83 2942,2509.5C 2949.94,2521.05 2958.61,2532.05 2968,2542.5C 2968.5,2579.83 2968.67,2617.17 2968.5,2654.5C 2973.83,2654.5 2979.17,2654.5 2984.5,2654.5C 2984.33,2622.83 2984.5,2591.16 2985,2559.5C 2992.79,2566.8 3001.29,2573.13 3010.5,2578.5C 3011.5,2614.49 3011.83,2650.49 3011.5,2686.5C 3016.83,2686.5 3022.17,2686.5 3027.5,2686.5C 3027.33,2653.17 3027.5,2619.83 3028,2586.5C 3035.21,2589.46 3042.71,2591.46 3050.5,2592.5C 3051.67,2596.87 3053.5,2600.87 3056,2604.5C 3055.67,2701.16 3055.17,2797.83 3054.5,2894.5 Z"/></g>
<g><path style="opacity:1" fill="#fefefe" d="M 2134.5,2532.5 C 2134.5,2723.83 2134.5,2915.17 2134.5,3106.5C 2095.86,3090.35 2059.52,3070.35 2025.5,3046.5C 2025.5,2914.83 2025.5,2783.17 2025.5,2651.5C 2061.47,2611.53 2097.8,2571.86 2134.5,2532.5 Z"/></g>
<g><path style="opacity:1" fill="#87b0ce" d="M 2049.5,2566.5 C 2049.5,2562.5 2049.5,2558.5 2049.5,2554.5C 1945.5,2554.5 1841.5,2554.5 1737.5,2554.5C 1737.5,2558.5 1737.5,2562.5 1737.5,2566.5C 1736.52,2562.37 1736.18,2558.03 1736.5,2553.5C 1841.17,2553.5 1945.83,2553.5 2050.5,2553.5C 2050.82,2558.03 2050.48,2562.37 2049.5,2566.5 Z"/></g>
<g><path style="opacity:1" fill="#fefffe" d="M 2049.5,2566.5 C 1945.5,2566.5 1841.5,2566.5 1737.5,2566.5C 1737.5,2562.5 1737.5,2558.5 1737.5,2554.5C 1841.5,2554.5 1945.5,2554.5 2049.5,2554.5C 2049.5,2558.5 2049.5,2562.5 2049.5,2566.5 Z"/></g>
<g><path style="opacity:1" fill="#7f7f7f" d="M 1463.5,2629.5 C 1463.56,2628.96 1463.89,2628.62 1464.5,2628.5C 1465.5,2655.16 1465.83,2681.83 1465.5,2708.5C 1464.83,2682.17 1464.17,2655.83 1463.5,2629.5 Z"/></g>
<g><path style="opacity:1" fill="#fdfdfd" d="M 1463.5,2629.5 C 1464.17,2655.83 1464.83,2682.17 1465.5,2708.5C 1466.26,2780.17 1466.42,2851.83 1466,2923.5C 1455.92,2955.66 1440.59,2984.99 1420,3011.5C 1412.64,3019.53 1404.14,3026.03 1394.5,3031C 1387.2,3034 1379.87,3034.17 1372.5,3031.5C 1372.51,3033.31 1372.01,3034.98 1371,3036.5C 1370.33,2921.5 1370.33,2806.5 1371,2691.5C 1373.21,2688.2 1375.05,2684.7 1376.5,2681C 1382.75,2679.75 1388.92,2678.25 1395,2676.5C 1395.5,2714.17 1395.67,2751.83 1395.5,2789.5C 1400.83,2789.5 1406.17,2789.5 1411.5,2789.5C 1411.5,2749.83 1411.5,2710.17 1411.5,2670.5C 1418.64,2668.26 1425.31,2664.93 1431.5,2660.5C 1432.5,2693.16 1432.83,2725.83 1432.5,2758.5C 1437.83,2758.5 1443.17,2758.5 1448.5,2758.5C 1448.33,2721.17 1448.5,2683.83 1449,2646.5C 1454.32,2641.17 1459.15,2635.51 1463.5,2629.5 Z"/></g>
<g><path style="opacity:1" fill="#f6f9fb" d="M 1760.5,2630.5 C 1826.5,2630.5 1892.5,2630.5 1958.5,2630.5C 1958.5,2634.83 1958.5,2639.17 1958.5,2643.5C 1892.5,2643.5 1826.5,2643.5 1760.5,2643.5C 1760.5,2639.17 1760.5,2634.83 1760.5,2630.5 Z"/></g>
<g><path style="opacity:1" fill="#fcfcfc" d="M 3072.5,2633.5 C 3077.59,2639.33 3082.93,2644.99 3088.5,2650.5C 3089.5,2688.16 3089.83,2725.83 3089.5,2763.5C 3094.83,2763.5 3100.17,2763.5 3105.5,2763.5C 3105.33,2730.5 3105.5,2697.5 3106,2664.5C 3112.01,2668.67 3118.34,2672.34 3125,2675.5C 3125.5,2714.83 3125.67,2754.17 3125.5,2793.5C 3130.83,2793.5 3136.17,2793.5 3141.5,2793.5C 3141.5,2756.17 3141.5,2718.83 3141.5,2681.5C 3147.86,2682.45 3154.2,2683.62 3160.5,2685C 3162.46,2688.42 3164.29,2691.92 3166,2695.5C 3166.67,2810.5 3166.67,2925.5 3166,3040.5C 3165.26,3038.78 3164.43,3037.11 3163.5,3035.5C 3151.83,3038.75 3141.16,3036.59 3131.5,3029C 3117.75,3017.59 3106.58,3004.09 3098,2988.5C 3087.14,2968.98 3078.14,2948.65 3071,2927.5C 3070.75,2829.49 3071.25,2731.49 3072.5,2633.5 Z"/></g>
<g><path style="opacity:1" fill="#c11934" d="M 2025.5,2651.5 C 2025.5,2783.17 2025.5,2914.83 2025.5,3046.5C 1971.76,3010.46 1922.76,2968.46 1878.5,2920.5C 1878.5,2884.17 1878.5,2847.83 1878.5,2811.5C 1926.79,2757.54 1975.79,2704.21 2025.5,2651.5 Z"/></g>
<g><path style="opacity:1" fill="#7f7f7f" d="M 1353.5,3043.5 C 1353.83,2935.67 1353.5,2828 1352.5,2720.5C 1352.78,2719.71 1353.28,2719.04 1354,2718.5C 1354.83,2827 1354.67,2935.33 1353.5,3043.5 Z"/></g>
<g><path style="opacity:1" fill="#fcfcfc" d="M 1352.5,2720.5 C 1353.5,2828 1353.83,2935.67 1353.5,3043.5C 1339.6,3087.14 1316.6,3125.31 1284.5,3158C 1262.62,3177.72 1236.95,3187.22 1207.5,3186.5C 1207.5,3055.5 1207.5,2924.5 1207.5,2793.5C 1215.9,2792.92 1224.24,2791.92 1232.5,2790.5C 1232.5,2851.83 1232.5,2913.17 1232.5,2974.5C 1237.83,2974.5 1243.17,2974.5 1248.5,2974.5C 1248.5,2912.5 1248.5,2850.5 1248.5,2788.5C 1246.8,2788.66 1245.13,2788.49 1243.5,2788C 1244.17,2787.67 1244.83,2787.33 1245.5,2787C 1254.81,2785.11 1263.81,2782.27 1272.5,2778.5C 1273.5,2827.5 1273.83,2876.5 1273.5,2925.5C 1278.83,2925.5 1284.17,2925.5 1289.5,2925.5C 1289.5,2873.83 1289.5,2822.17 1289.5,2770.5C 1296.88,2767.64 1303.88,2763.98 1310.5,2759.5C 1311.5,2802.49 1311.83,2845.49 1311.5,2888.5C 1316.83,2888.5 1322.17,2888.5 1327.5,2888.5C 1327.33,2841.17 1327.5,2793.83 1328,2746.5C 1337.41,2738.92 1345.58,2730.26 1352.5,2720.5 Z"/></g>
<g><path style="opacity:1" fill="#7f7f7f" d="M 3184.5,2724.5 C 3183.5,2832 3183.17,2939.67 3183.5,3047.5C 3182.33,2939.33 3182.17,2831 3183,2722.5C 3183.72,2723.04 3184.22,2723.71 3184.5,2724.5 Z"/></g>
<g><path style="opacity:1" fill="#fcfcfc" d="M 3184.5,2724.5 C 3191.42,2734.26 3199.59,2742.92 3209,2750.5C 3209.5,2797.83 3209.67,2845.17 3209.5,2892.5C 3214.83,2892.5 3220.17,2892.5 3225.5,2892.5C 3226.17,2849.83 3226.83,2807.17 3227.5,2764.5C 3233.93,2768.38 3240.59,2771.71 3247.5,2774.5C 3247.5,2826.17 3247.5,2877.83 3247.5,2929.5C 3252.83,2929.5 3258.17,2929.5 3263.5,2929.5C 3263.33,2880.5 3263.5,2831.5 3264,2782.5C 3273.25,2786.37 3282.75,2789.54 3292.5,2792C 3291.55,2792.48 3290.55,2792.65 3289.5,2792.5C 3289.5,2854.5 3289.5,2916.5 3289.5,2978.5C 3294.83,2978.5 3300.17,2978.5 3305.5,2978.5C 3305.5,2917.17 3305.5,2855.83 3305.5,2794.5C 3313.4,2796.1 3321.4,2797.1 3329.5,2797.5C 3329.5,2928.5 3329.5,3059.5 3329.5,3190.5C 3300.36,3191.72 3275.03,3182.55 3253.5,3163C 3220.83,3130.16 3197.5,3091.66 3183.5,3047.5C 3183.17,2939.67 3183.5,2832 3184.5,2724.5 Z"/></g>
<g><path style="opacity:1" fill="#f6f9fb" d="M 1767.5,2724.5 C 1797.83,2724.5 1828.17,2724.5 1858.5,2724.5C 1858.5,2728.83 1858.5,2733.17 1858.5,2737.5C 1828.17,2737.5 1797.83,2737.5 1767.5,2737.5C 1767.5,2733.17 1767.5,2728.83 1767.5,2724.5 Z"/></g>
<g><path style="opacity:1" fill="#7e7e7e" d="M 1613.5,2739.5 C 1614.19,2750.4 1614.85,2761.4 1615.5,2772.5C 1613.52,2761.88 1612.86,2750.88 1613.5,2739.5 Z"/></g>
<g><path style="opacity:1" fill="#7f807f" d="M 3227.5,2764.5 C 3226.83,2807.17 3226.17,2849.83 3225.5,2892.5C 3225.17,2849.49 3225.5,2806.49 3226.5,2763.5C 3227.11,2763.62 3227.44,2763.96 3227.5,2764.5 Z"/></g>
<g><path style="opacity:1" fill="#7e7e7e" d="M 1625.5,2788.5 C 1622.04,2789.48 1618.37,2789.81 1614.5,2789.5C 1614.5,2794.83 1614.5,2800.17 1614.5,2805.5C 1613.51,2800.02 1613.18,2794.36 1613.5,2788.5C 1617.5,2788.5 1621.5,2788.5 1625.5,2788.5 Z"/></g>
<g><path style="opacity:1" fill="#7c7c7c" d="M 2917.5,2793.5 C 2919.26,2792.54 2921.26,2792.21 2923.5,2792.5C 2923.5,2801.5 2923.5,2810.5 2923.5,2819.5C 2922.51,2811.02 2922.17,2802.35 2922.5,2793.5C 2920.83,2793.5 2919.17,2793.5 2917.5,2793.5 Z"/></g>
<g><path style="opacity:1" fill="#fdfdfd" d="M 1878.5,2811.5 C 1878.5,2847.83 1878.5,2884.17 1878.5,2920.5C 1861.47,2902.47 1845.14,2883.8 1829.5,2864.5C 1845.52,2846.49 1861.85,2828.82 1878.5,2811.5 Z"/></g>
<g><path style="opacity:1" fill="#7d7d7d" d="M 1482.5,2873.5 C 1483.17,2888.17 1483.83,2902.83 1484.5,2917.5C 1484.29,2918.92 1483.79,2920.26 1483,2921.5C 1482.5,2905.5 1482.33,2889.5 1482.5,2873.5 Z"/></g>
<g><path style="opacity:1" fill="#7c7c7c" d="M 3054.5,2894.5 C 3054.67,2904.84 3054.5,2915.17 3054,2925.5C 3052.99,2923.98 3052.49,2922.31 3052.5,2920.5C 3053.17,2911.83 3053.83,2903.17 3054.5,2894.5 Z"/></g>
<g><path style="opacity:1" fill="#fdfdfe" d="M 603.5,3080.5 C 610.676,3092.02 616.676,3104.19 621.5,3117C 613.141,3147.27 605.808,3177.77 599.5,3208.5C 628.127,3210.63 656.794,3212.13 685.5,3213C 692.977,3222.64 700.644,3232.14 708.5,3241.5C 666.323,3279.51 623.823,3317.18 581,3354.5C 573.377,3344.09 565.877,3333.59 558.5,3323C 588.353,3296.98 618.353,3271.15 648.5,3245.5C 624.832,3244.7 601.165,3243.87 577.5,3243C 572.306,3235.6 567.639,3227.94 563.5,3220C 569.714,3194.47 576.381,3169.14 583.5,3144C 582.833,3143.33 582.167,3143.33 581.5,3144C 551.322,3166.85 521.156,3189.68 491,3212.5C 482.444,3202.4 474.61,3191.73 467.5,3180.5C 512.901,3147.15 558.234,3113.81 603.5,3080.5 Z"/></g>
<g><path style="opacity:1" fill="#fcfcfc" d="M 2112.5,3115.5 C 2123.81,3120.49 2135.14,3125.49 2146.5,3130.5C 2136.23,3181.81 2118.73,3230.48 2094,3276.5C 2072.65,3316.57 2047.81,3354.23 2019.5,3389.5C 2022.87,3393.88 2026.87,3397.54 2031.5,3400.5C 2083.38,3337.09 2122.55,3266.42 2149,3188.5C 2154.29,3171.1 2158.62,3153.43 2162,3135.5C 2169.14,3139.05 2176.64,3141.72 2184.5,3143.5C 2183.42,3178.8 2175.59,3212.47 2161,3244.5C 2145.15,3279.97 2125.65,3313.13 2102.5,3344C 2106.69,3347.69 2111.02,3351.19 2115.5,3354.5C 2153.28,3305.28 2180.11,3250.61 2196,3190.5C 2198.43,3176.58 2200.26,3162.58 2201.5,3148.5C 2219.55,3154.13 2237.88,3158.63 2256.5,3162C 2230.69,3238.12 2192.19,3307.28 2141,3369.5C 2119.01,3395.38 2093.51,3416.88 2064.5,3434C 2028.2,3454.66 1989.53,3461 1948.5,3453C 1990.75,3406.39 2024.92,3354.22 2051,3296.5C 2077.92,3238.59 2098.42,3178.26 2112.5,3115.5 Z"/></g>
<g><path style="opacity:1" fill="#fcfcfc" d="M 2349.5,3159.5 C 2349.22,3154.41 2349.55,3149.41 2350.5,3144.5C 2356.98,3141.93 2363.65,3139.93 2370.5,3138.5C 2379.28,3184.69 2394.12,3228.69 2415,3270.5C 2437.59,3317.04 2464.92,3360.37 2497,3400.5C 2501.17,3397 2505.33,3393.5 2509.5,3390C 2457.84,3324.87 2419.68,3252.37 2395,3172.5C 2391.46,3159.06 2388.3,3145.56 2385.5,3132C 2396.62,3127.74 2407.46,3122.91 2418,3117.5C 2438.47,3209.24 2472.47,3295.58 2520,3376.5C 2537.1,3403.52 2556.27,3429.02 2577.5,3453C 2536.11,3460.94 2497.44,3453.94 2461.5,3432C 2432.22,3412.39 2406.39,3388.89 2384,3361.5C 2338.62,3301.42 2303.12,3235.76 2277.5,3164.5C 2295.83,3159.94 2314.16,3155.28 2332.5,3150.5C 2333.99,3183.8 2341.16,3215.8 2354,3246.5C 2370.23,3284.97 2390.56,3320.97 2415,3354.5C 2418.57,3351.3 2422.4,3348.47 2426.5,3346C 2427.52,3344.95 2427.68,3343.78 2427,3342.5C 2389.72,3292.6 2364.38,3237.27 2351,3176.5C 2349.97,3170.88 2349.47,3165.21 2349.5,3159.5 Z"/></g>
<g><path style="opacity:1" fill="#7d7d7d" d="M 2350.5,3144.5 C 2349.55,3149.41 2349.22,3154.41 2349.5,3159.5C 2348.84,3157.19 2348.5,3154.69 2348.5,3152C 2348.52,3149.07 2349.19,3146.57 2350.5,3144.5 Z"/></g>
<g><path style="opacity:1" fill="#fdfdfd" d="M 3840.5,3153.5 C 3900.29,3163.55 3960.29,3172.55 4020.5,3180.5C 4015.08,3189 4009.91,3197.67 4005,3206.5C 4000.81,3212.01 3995.31,3215.01 3988.5,3215.5C 3972.24,3213.28 3956.07,3210.61 3940,3207.5C 3937.68,3208.49 3936.01,3210.15 3935,3212.5C 3923.48,3230.68 3911.98,3248.84 3900.5,3267C 3909.12,3287.02 3917.45,3307.18 3925.5,3327.5C 3925.28,3328.94 3924.78,3330.27 3924,3331.5C 3916.99,3341.33 3909.83,3351 3902.5,3360.5C 3880.34,3301.61 3856.51,3243.27 3831,3185.5C 3829.64,3181.24 3829.3,3176.91 3830,3172.5C 3833,3165.82 3836.5,3159.48 3840.5,3153.5 Z"/></g>
<g><path style="opacity:1" fill="#174186" d="M 3870.5,3196.5 C 3870.74,3195.9 3871.24,3195.57 3872,3195.5C 3884.16,3197.54 3896.33,3199.54 3908.5,3201.5C 3901.83,3212.84 3894.66,3223.84 3887,3234.5C 3881.49,3221.72 3875.99,3209.05 3870.5,3196.5 Z"/></g>
<g><path style="opacity:1" fill="#fdfdfd" d="M 2275.5,3426.5 C 2276.17,3353.83 2276.83,3281.17 2277.5,3208.5C 2303.01,3270.92 2336.68,3328.25 2378.5,3380.5C 2360.51,3403.01 2344.67,3427.01 2331,3452.5C 2308.01,3494.82 2286.34,3537.82 2266,3581.5C 2265.33,3582.83 2264.67,3582.83 2264,3581.5C 2233.36,3521.53 2199.7,3463.53 2163,3407.5C 2158.08,3400.65 2152.91,3393.99 2147.5,3387.5C 2193.77,3332.34 2230.94,3271.34 2259,3204.5C 2259.5,3278.5 2259.67,3352.5 2259.5,3426.5C 2264.83,3426.5 2270.17,3426.5 2275.5,3426.5 Z"/></g>
<g><path style="opacity:1" fill="#7f7f7f" d="M 2277.5,3208.5 C 2276.83,3281.17 2276.17,3353.83 2275.5,3426.5C 2275.33,3352.83 2275.5,3279.17 2276,3205.5C 2276.51,3206.53 2277.01,3207.53 2277.5,3208.5 Z"/></g>
<g><path style="opacity:1" fill="#fdfdfd" d="M 757.5,3324.5 C 761.747,3324.18 765.747,3325.01 769.5,3327C 774.806,3331.46 779.139,3336.63 782.5,3342.5C 759.353,3404.1 737.853,3466.44 718,3529.5C 711.333,3521.5 704.667,3513.5 698,3505.5C 695.876,3501.1 694.709,3496.43 694.5,3491.5C 699.226,3474.73 705.059,3458.39 712,3442.5C 712.995,3439.87 713.328,3437.21 713,3434.5C 699.14,3417.94 685.64,3401.11 672.5,3384C 652.728,3388.4 632.895,3392.9 613,3397.5C 604.69,3387.56 596.857,3377.22 589.5,3366.5C 589.709,3365.91 590.043,3365.41 590.5,3365C 627.473,3356.78 664.473,3348.45 701.5,3340C 720.393,3335.11 739.06,3329.95 757.5,3324.5 Z"/></g>
<g><path style="opacity:1" fill="#fdfdfe" d="M 3713.5,3329.5 C 3718.27,3333.1 3722.94,3336.93 3727.5,3341C 3756.71,3370.71 3786.38,3399.88 3816.5,3428.5C 3838.44,3400.78 3859.77,3372.62 3880.5,3344C 3886.42,3351.72 3891.42,3360.39 3895.5,3370C 3869.49,3406.84 3842.16,3442.68 3813.5,3477.5C 3773.51,3437.35 3733.68,3397.01 3694,3356.5C 3693.33,3355.83 3693.33,3355.17 3694,3354.5C 3700.99,3346.5 3707.49,3338.17 3713.5,3329.5 Z"/></g>
<g><path style="opacity:1" fill="#194287" d="M 736.5,3365.5 C 737.675,3365.28 738.675,3365.61 739.5,3366.5C 735.03,3379.24 730.363,3391.91 725.5,3404.5C 717.483,3395.15 709.817,3385.48 702.5,3375.5C 713.94,3372.14 725.273,3368.81 736.5,3365.5 Z"/></g>
<g><path style="opacity:1" fill="#fdfdfe" d="M 3682.5,3368.5 C 3687.49,3378.65 3690.99,3389.32 3693,3400.5C 3672.89,3425.51 3651.73,3449.68 3629.5,3473C 3638,3482.83 3646.5,3492.67 3655,3502.5C 3678.46,3477.88 3700.96,3452.55 3722.5,3426.5C 3727.61,3437 3730.78,3448 3732,3459.5C 3713.02,3481.32 3693.85,3502.98 3674.5,3524.5C 3683.85,3536.01 3693.68,3547.01 3704,3557.5C 3711.25,3552.25 3717.92,3546.25 3724,3539.5C 3741.33,3519.5 3758.67,3499.5 3776,3479.5C 3782.13,3486.64 3788.63,3493.47 3795.5,3500C 3771.28,3529.23 3745.95,3557.56 3719.5,3585C 3715.12,3589.05 3710.45,3592.71 3705.5,3596C 3700.67,3598.8 3695.67,3599.47 3690.5,3598C 3655.23,3558.23 3620.9,3517.73 3587.5,3476.5C 3619.93,3441.07 3651.6,3405.07 3682.5,3368.5 Z"/></g>
<g><path style="opacity:1" fill="#fdfdfe" d="M 842.5,3411.5 C 866.851,3438.81 891.684,3465.81 917,3492.5C 932.944,3515.86 931.944,3538.53 914,3560.5C 908.323,3567.52 901.489,3573.02 893.5,3577C 882.634,3581.24 872.467,3580.07 863,3573.5C 857.553,3601.65 852.72,3629.98 848.5,3658.5C 900.1,3636.51 951.1,3612.68 1001.5,3587C 1006.44,3585.96 1011.11,3586.63 1015.5,3589C 1020.06,3592.4 1024.06,3596.23 1027.5,3600.5C 1013.29,3664.51 1000.62,3728.85 989.5,3793.5C 981.226,3787.4 973.393,3780.73 966,3773.5C 962.669,3767.58 961.669,3761.25 963,3754.5C 965.546,3737.93 969.046,3721.6 973.5,3705.5C 958.036,3690.87 942.369,3676.37 926.5,3662C 907.657,3670.62 888.824,3679.46 870,3688.5C 861.137,3679.3 851.97,3670.47 842.5,3662C 842.833,3661.67 843.167,3661.33 843.5,3661C 833.784,3652.95 825.117,3643.95 817.5,3634C 822.702,3606.32 828.535,3578.82 835,3551.5C 835.667,3549.5 835.667,3547.5 835,3545.5C 823.667,3533.5 812.333,3521.5 801,3509.5C 786.057,3526.4 770.891,3543.06 755.5,3559.5C 745.274,3553.56 735.607,3546.89 726.5,3539.5C 764.819,3496.51 803.486,3453.85 842.5,3411.5 Z"/></g>
<g><path style="opacity:1" fill="#144085" d="M 845.5,3458.5 C 860.768,3474.94 876.268,3491.27 892,3507.5C 896.293,3520.95 892.46,3531.45 880.5,3539C 875.816,3540.1 871.483,3539.44 867.5,3537C 851.967,3521.13 836.8,3504.97 822,3488.5C 821.333,3487.5 821.333,3486.5 822,3485.5C 830.416,3476.92 838.249,3467.92 845.5,3458.5 Z"/></g>
<g><path style="opacity:1" fill="#fdfdfe" d="M 3571.5,3491.5 C 3573.9,3491.39 3575.74,3492.39 3577,3494.5C 3612.08,3537.02 3646.92,3579.69 3681.5,3622.5C 3680.23,3624.94 3678.73,3627.28 3677,3629.5C 3658.14,3650.03 3638.3,3669.53 3617.5,3688C 3605.21,3698.31 3591.55,3706.31 3576.5,3712C 3568.9,3713.89 3562.4,3712.06 3557,3706.5C 3528.82,3666.99 3500.65,3627.49 3472.5,3588C 3480.3,3579.87 3488.46,3572.04 3497,3564.5C 3524.29,3600.91 3551.46,3637.41 3578.5,3674C 3581.56,3674.46 3584.56,3674.12 3587.5,3673C 3606.32,3660.52 3622.99,3645.52 3637.5,3628C 3608.73,3590.89 3579.56,3554.06 3550,3517.5C 3549.33,3516.5 3549.33,3515.5 3550,3514.5C 3557.01,3506.66 3564.17,3499 3571.5,3491.5 Z"/></g>
<g><path style="opacity:1" fill="#fdfdfe" d="M 3459.5,3598.5 C 3465.19,3604.7 3470.35,3611.36 3475,3618.5C 3475.92,3620.03 3476.42,3621.7 3476.5,3623.5C 3468.72,3680.32 3460.22,3736.99 3451,3793.5C 3482.94,3768.07 3514.44,3742.07 3545.5,3715.5C 3549.49,3724.81 3552.49,3734.47 3554.5,3744.5C 3549.97,3749.78 3544.97,3754.61 3539.5,3759C 3502.14,3791.04 3463.64,3821.54 3424,3850.5C 3418.68,3843.2 3413.84,3835.53 3409.5,3827.5C 3421.44,3769.77 3432.44,3711.94 3442.5,3654C 3441.83,3653.33 3441.17,3653.33 3440.5,3654C 3411.74,3678.09 3382.41,3701.43 3352.5,3724C 3351.36,3724.75 3350.36,3724.58 3349.5,3723.5C 3344.83,3715.5 3340.17,3707.5 3335.5,3699.5C 3378.04,3667.29 3419.37,3633.63 3459.5,3598.5 Z"/></g>
<g><path style="opacity:1" fill="#194287" d="M 987.5,3630.5 C 988.622,3632.29 988.789,3634.29 988,3636.5C 985.972,3648.3 983.306,3659.97 980,3671.5C 970.885,3664.02 962.051,3656.19 953.5,3648C 964.947,3642.25 976.28,3636.42 987.5,3630.5 Z"/></g>
<g><path style="opacity:1" fill="#fcfdfd" d="M 1096.5,3671.5 C 1107.36,3671.37 1117.36,3674.2 1126.5,3680C 1153.1,3700.44 1180.1,3720.28 1207.5,3739.5C 1201.29,3745.21 1194.62,3750.38 1187.5,3755C 1185.64,3756.3 1183.64,3756.63 1181.5,3756C 1161.83,3741.67 1142.17,3727.33 1122.5,3713C 1118.47,3710.98 1114.47,3708.98 1110.5,3707C 1104.06,3704.22 1098.22,3705.05 1093,3709.5C 1078,3733.17 1063,3756.83 1048,3780.5C 1047.33,3784.5 1047.33,3788.5 1048,3792.5C 1055.24,3806.09 1065.08,3817.59 1077.5,3827C 1094.36,3839.36 1111.36,3851.53 1128.5,3863.5C 1129.61,3864.72 1129.78,3866.06 1129,3867.5C 1124.91,3874.7 1120.57,3881.7 1116,3888.5C 1091.95,3872.46 1068.45,3855.62 1045.5,3838C 1034.95,3828.71 1026.45,3817.88 1020,3805.5C 1013.79,3790.68 1014.12,3776.02 1021,3761.5C 1036.67,3737.5 1052.33,3713.5 1068,3689.5C 1075.14,3679.53 1084.64,3673.53 1096.5,3671.5 Z"/></g>
<g><path style="opacity:1" fill="#fcfcfd" d="M 3322.5,3708.5 C 3324.48,3713.87 3325.64,3719.54 3326,3725.5C 3326.27,3730.53 3326.77,3735.53 3327.5,3740.5C 3327.17,3741.17 3326.83,3741.83 3326.5,3742.5C 3302.38,3760.28 3277.72,3777.28 3252.5,3793.5C 3258.58,3805.34 3264.92,3817 3271.5,3828.5C 3298.28,3811.36 3324.44,3793.36 3350,3774.5C 3351.66,3785.78 3352.66,3797.11 3353,3808.5C 3330.61,3824.39 3308.11,3840.06 3285.5,3855.5C 3292.37,3868.75 3299.37,3881.91 3306.5,3895C 3312.42,3893.21 3318.08,3890.55 3323.5,3887C 3345.91,3872.42 3367.91,3857.25 3389.5,3841.5C 3394.99,3849.13 3399.99,3857.13 3404.5,3865.5C 3374.92,3888.3 3343.92,3909.14 3311.5,3928C 3306.13,3930.74 3300.46,3932.57 3294.5,3933.5C 3289.18,3933.02 3285.35,3930.36 3283,3925.5C 3258.96,3878.96 3235.13,3832.29 3211.5,3785.5C 3241.13,3765.35 3270.8,3745.18 3300.5,3725C 3308.02,3719.64 3315.35,3714.14 3322.5,3708.5 Z"/></g>
<g><path style="opacity:1" fill="#fcfcfd" d="M 1271.5,3789.5 C 1280.74,3788.87 1288.91,3791.54 1296,3797.5C 1291.99,3863.44 1288.83,3929.44 1286.5,3995.5C 1278.04,3990.87 1269.7,3986.03 1261.5,3981C 1258.43,3977.7 1256.27,3973.87 1255,3969.5C 1255.12,3950.6 1256.29,3931.77 1258.5,3913C 1258.24,3911.74 1257.57,3910.74 1256.5,3910C 1239.66,3899.82 1222.82,3889.65 1206,3879.5C 1189.32,3891.68 1172.48,3903.68 1155.5,3915.5C 1145.09,3909.25 1135.09,3902.42 1125.5,3895C 1175.19,3861.13 1223.85,3825.97 1271.5,3789.5 Z"/></g>
<g><path style="opacity:1" fill="#fcfdfd" d="M 3187.5,3798.5 C 3188.68,3798.28 3189.68,3798.61 3190.5,3799.5C 3216.44,3851.71 3242.11,3904.04 3267.5,3956.5C 3258.33,3962.58 3249,3968.42 3239.5,3974C 3237.3,3975.37 3234.97,3975.71 3232.5,3975C 3192.76,3955.96 3153.43,3936.13 3114.5,3915.5C 3114.17,3915.83 3113.83,3916.17 3113.5,3916.5C 3128.02,3948.88 3142.02,3981.55 3155.5,4014.5C 3147.15,4022.18 3138.49,4029.51 3129.5,4036.5C 3106.49,3981.13 3083.49,3925.8 3060.5,3870.5C 3067.97,3865.93 3075.64,3861.6 3083.5,3857.5C 3126.12,3882.31 3169.79,3905.31 3214.5,3926.5C 3214.83,3926.17 3215.17,3925.83 3215.5,3925.5C 3197.58,3888.65 3179.91,3851.65 3162.5,3814.5C 3170.87,3809.11 3179.21,3803.77 3187.5,3798.5 Z"/></g>
<g><path style="opacity:1" fill="#154086" d="M 1262.5,3835.5 C 1263.1,3835.74 1263.43,3836.24 1263.5,3837C 1262.12,3850.45 1261.45,3863.95 1261.5,3877.5C 1251.11,3872.47 1241.11,3866.63 1231.5,3860C 1242.27,3852.3 1252.6,3844.13 1262.5,3835.5 Z"/></g>
<g><path style="opacity:1" fill="#fcfcfd" d="M 1381.5,3845.5 C 1391.1,3849.97 1400.43,3854.97 1409.5,3860.5C 1386.45,3914.28 1363.62,3968.28 1341,4022.5C 1340.44,4023.02 1339.77,4023.36 1339,4023.5C 1329.24,4018.72 1319.74,4013.56 1310.5,4008C 1334.06,3953.84 1357.73,3899.67 1381.5,3845.5 Z"/></g>
<g><path style="opacity:1" fill="#fcfdfd" d="M 1437.5,3875.5 C 1461.48,3886.49 1485.15,3897.99 1508.5,3910C 1518.1,3917.37 1524.6,3926.87 1528,3938.5C 1528.13,3944.17 1527.8,3949.84 1527,3955.5C 1523.5,3965.17 1520,3974.83 1516.5,3984.5C 1522.58,3994.41 1524.75,4005.08 1523,4016.5C 1517.38,4034.02 1511.38,4051.35 1505,4068.5C 1497.24,4081.63 1485.74,4087.13 1470.5,4085C 1436.88,4072.52 1404.21,4057.86 1372.5,4041C 1371.94,4040.28 1371.61,4039.44 1371.5,4038.5C 1393.23,3984.04 1415.23,3929.71 1437.5,3875.5 Z"/></g>
<g><path style="opacity:1" fill="#fcfdfd" d="M 3042.5,3878.5 C 3043.83,3883.62 3044.5,3889.12 3044.5,3895C 3044.17,3900.5 3043.83,3906 3043.5,3911.5C 3017.16,3924.51 2990.49,3936.67 2963.5,3948C 2967.55,3960.66 2971.89,3973.16 2976.5,3985.5C 3005.27,3974.37 3033.44,3961.7 3061,3947.5C 3061.99,3958.92 3061.49,3970.26 3059.5,3981.5C 3035.89,3992.89 3012.06,4003.89 2988,4014.5C 2991.31,4028.77 2995.64,4042.77 3001,4056.5C 3001.67,4057.58 3002.67,4058.25 3004,4058.5C 3033.8,4048.07 3062.63,4035.4 3090.5,4020.5C 3095.24,4029.32 3098.9,4038.66 3101.5,4048.5C 3077.88,4059.43 3054.21,4070.26 3030.5,4081C 3020.34,4084.9 3010.01,4088.57 2999.5,4092C 2994.22,4093.36 2988.89,4093.69 2983.5,4093C 2978.94,4091.37 2976.1,4088.21 2975,4083.5C 2958.66,4032.99 2941.83,3982.66 2924.5,3932.5C 2964.4,3915.98 3003.73,3897.98 3042.5,3878.5 Z"/></g>
<g><path style="opacity:1" fill="#154086" d="M 1454.5,3918.5 C 1465.69,3923.93 1477.02,3929.09 1488.5,3934C 1491,3935.83 1493.5,3937.67 1496,3939.5C 1493.8,3948.27 1490.97,3956.94 1487.5,3965.5C 1486.28,3966.61 1484.94,3966.78 1483.5,3966C 1470.41,3959.7 1457.24,3953.54 1444,3947.5C 1446.73,3937.59 1450.23,3927.93 1454.5,3918.5 Z"/></g>
<g><path style="opacity:1" fill="#fcfdfd" d="M 2906.5,4021.5 C 2906.83,4057.57 2906.49,4093.57 2905.5,4129.5C 2889.1,4135.39 2872.6,4141.06 2856,4146.5C 2822.58,4095.34 2790.41,4043.34 2759.5,3990.5C 2759.71,3989.91 2760.04,3989.41 2760.5,3989C 2770.51,3986.33 2780.35,3983.17 2790,3979.5C 2816.55,4022.04 2843.88,4064.04 2872,4105.5C 2874.04,4053.85 2874.88,4002.19 2874.5,3950.5C 2884.85,3946.67 2895.19,3943 2905.5,3939.5C 2906.21,3966.83 2906.54,3994.16 2906.5,4021.5 Z"/></g>
<g><path style="opacity:1" fill="#fcfdfd" d="M 1584.5,3948.5 C 1614.09,3950.62 1641.76,3959.12 1667.5,3974C 1687.73,3986.96 1696.23,4005.46 1693,4029.5C 1686.8,4055.95 1680.14,4082.29 1673,4108.5C 1660.33,4138.41 1638.17,4148.91 1606.5,4140C 1582.37,4134.63 1560.37,4124.63 1540.5,4110C 1529.54,4099.23 1524.2,4086.06 1524.5,4070.5C 1525,4065.5 1525.5,4060.5 1526,4055.5C 1533.83,4031.02 1541.83,4006.68 1550,3982.5C 1556.78,3966.22 1568.28,3954.88 1584.5,3948.5 Z"/></g>
<g><path style="opacity:1" fill="#133f85" d="M 1432.5,3975.5 C 1448.6,3982.38 1464.6,3989.55 1480.5,3997C 1487.49,3999.99 1489.99,4005.16 1488,4012.5C 1483.68,4024.8 1479.34,4037.13 1475,4049.5C 1472.44,4052.35 1469.27,4053.18 1465.5,4052C 1447.74,4043.96 1430.08,4035.62 1412.5,4027C 1419.46,4009.96 1426.13,3992.79 1432.5,3975.5 Z"/></g>
<g><path style="opacity:1" fill="#133f85" d="M 1595.5,3979.5 C 1606.72,3980.58 1617.72,3982.74 1628.5,3986C 1635.8,3989.65 1643.14,3993.32 1650.5,3997C 1657.16,4002.65 1660.66,4009.81 1661,4018.5C 1661.67,4024.17 1661.67,4029.83 1661,4035.5C 1656.63,4053.65 1651.63,4071.65 1646,4089.5C 1641.92,4099.57 1635.09,4107.07 1625.5,4112C 1601.92,4112.06 1581.08,4104.56 1563,4089.5C 1557.99,4079.8 1556.33,4069.47 1558,4058.5C 1561.52,4043.27 1565.85,4028.27 1571,4013.5C 1574.84,4002.97 1580.34,3993.47 1587.5,3985C 1590.07,3982.91 1592.74,3981.08 1595.5,3979.5 Z"/></g>
<g><path style="opacity:1" fill="#889ec1" d="M 2906.5,4021.5 C 2907.17,4039.33 2907.5,4057.33 2907.5,4075.5C 2907.5,4093.85 2906.83,4111.85 2905.5,4129.5C 2906.49,4093.57 2906.83,4057.57 2906.5,4021.5 Z"/></g>
<g><path style="opacity:1" fill="#fcfcfd" d="M 2053.5,4233.5 C 2052.6,4234.21 2052.26,4235.21 2052.5,4236.5C 2051.17,4236.5 2049.83,4236.5 2048.5,4236.5C 2039.49,4235.98 2030.49,4235.31 2021.5,4234.5C 2025.78,4184.3 2030.45,4134.13 2035.5,4084C 2035.25,4082.67 2034.58,4081.67 2033.5,4081C 2028.9,4079.88 2024.23,4079.38 2019.5,4079.5C 2023.96,4069.93 2029.46,4060.93 2036,4052.5C 2046.4,4054.09 2056.9,4055.09 2067.5,4055.5C 2062.62,4114.81 2057.95,4174.14 2053.5,4233.5 Z"/></g>
<g><path style="opacity:1" fill="#fcfcfd" d="M 2445.5,4053.5 C 2447.5,4053.5 2449.5,4053.5 2451.5,4053.5C 2451.31,4063.02 2449.98,4072.36 2447.5,4081.5C 2429.55,4083.89 2411.55,4085.89 2393.5,4087.5C 2394.34,4100.49 2395.01,4113.49 2395.5,4126.5C 2402.71,4126.33 2409.88,4125.66 2417,4124.5C 2426.81,4125.39 2436.31,4127.56 2445.5,4131C 2455.74,4136.96 2461.9,4145.8 2464,4157.5C 2466.08,4173.45 2467.08,4189.45 2467,4205.5C 2463.02,4219.48 2454.19,4228.98 2440.5,4234C 2434.36,4236.4 2428.03,4238.07 2421.5,4239C 2403.49,4240.3 2385.49,4241.46 2367.5,4242.5C 2367.52,4233.15 2367.18,4223.82 2366.5,4214.5C 2383.55,4214 2400.55,4212.83 2417.5,4211C 2430.21,4207.46 2435.87,4198.96 2434.5,4185.5C 2434.56,4176.73 2432.72,4168.39 2429,4160.5C 2425.78,4155.64 2421.28,4152.97 2415.5,4152.5C 2398.25,4154.7 2380.92,4156.03 2363.5,4156.5C 2361.57,4124.85 2359.91,4093.18 2358.5,4061.5C 2387.76,4060.09 2416.76,4057.42 2445.5,4053.5 Z"/></g>
<g><path style="opacity:1" fill="#fbfcfd" d="M 2330.5,4062.5 C 2332.5,4062.5 2334.5,4062.5 2336.5,4062.5C 2336.19,4065.39 2336.53,4068.05 2337.5,4070.5C 2340.06,4128.49 2342.4,4186.49 2344.5,4244.5C 2334.17,4244.95 2323.84,4245.28 2313.5,4245.5C 2312.95,4230.15 2312.28,4214.81 2311.5,4199.5C 2285.5,4200.13 2259.5,4200.46 2233.5,4200.5C 2233.33,4192.83 2233.5,4185.16 2234,4177.5C 2260.78,4140.05 2286.78,4102.05 2312,4063.5C 2318.08,4062.52 2324.24,4062.19 2330.5,4062.5 Z"/></g>
<g><path style="opacity:1" fill="#869dc0" d="M 2330.5,4062.5 C 2332.61,4061.53 2334.94,4061.2 2337.5,4061.5C 2337.5,4064.5 2337.5,4067.5 2337.5,4070.5C 2336.53,4068.05 2336.19,4065.39 2336.5,4062.5C 2334.5,4062.5 2332.5,4062.5 2330.5,4062.5 Z"/></g>
<g><path style="opacity:1" fill="#fcfcfd" d="M 2137.5,4243.5 C 2131.92,4243.14 2126.59,4242.14 2121.5,4240.5C 2121.34,4232.47 2121.68,4224.47 2122.5,4216.5C 2133.84,4216.67 2145.17,4216.5 2156.5,4216C 2169.64,4216.03 2178.14,4209.86 2182,4197.5C 2182.5,4189.84 2182.67,4182.17 2182.5,4174.5C 2163.48,4177.52 2145.15,4175.35 2127.5,4168C 2112.84,4159.84 2106.17,4147.34 2107.5,4130.5C 2108.08,4118.15 2108.91,4105.82 2110,4093.5C 2115.14,4074.49 2127.64,4064.32 2147.5,4063C 2162.77,4062.23 2177.77,4063.89 2192.5,4068C 2204.8,4073.29 2212.3,4082.46 2215,4095.5C 2215.11,4133.17 2214.77,4170.83 2214,4208.5C 2211.72,4225.12 2202.55,4235.95 2186.5,4241C 2170.26,4243.17 2153.92,4244.01 2137.5,4243.5 Z"/></g>
<g><path style="opacity:1" fill="#fcfcfd" d="M 1769.5,4084.5 C 1815.11,4094.88 1860.78,4105.05 1906.5,4115C 1903.79,4124.19 1900.96,4133.35 1898,4142.5C 1853.38,4133.01 1808.88,4123.01 1764.5,4112.5C 1765.98,4103.12 1767.65,4093.79 1769.5,4084.5 Z"/></g>
<g><path style="opacity:1" fill="#133f85" d="M 2152.5,4090.5 C 2159.49,4091.07 2166.49,4091.57 2173.5,4092C 2180.04,4094.57 2183.54,4099.41 2184,4106.5C 2184.92,4116.28 2184.25,4125.95 2182,4135.5C 2178.57,4144.4 2172.07,4148.06 2162.5,4146.5C 2151.96,4148.32 2144.79,4144.32 2141,4134.5C 2139.09,4123.85 2139.09,4113.19 2141,4102.5C 2143.05,4096.62 2146.88,4092.62 2152.5,4090.5 Z"/></g>
<g><path style="opacity:1" fill="#fcfcfd" d="M 2689.5,4091.5 C 2690.17,4093.83 2690.83,4096.17 2691.5,4098.5C 2692.12,4105.82 2692.45,4113.15 2692.5,4120.5C 2647.81,4130.64 2602.81,4139.64 2557.5,4147.5C 2556.5,4138.84 2555.5,4130.17 2554.5,4121.5C 2554.61,4120.56 2554.94,4119.72 2555.5,4119C 2600.54,4111.29 2645.21,4102.13 2689.5,4091.5 Z"/></g>
<g><path style="opacity:1" fill="#7e96bc" d="M 2689.5,4091.5 C 2689.56,4090.96 2689.89,4090.62 2690.5,4090.5C 2691.48,4093.09 2691.81,4095.75 2691.5,4098.5C 2690.83,4096.17 2690.17,4093.83 2689.5,4091.5 Z"/></g>
<g><path style="opacity:1" fill="#8097bd" d="M 2310.5,4125.5 C 2309.83,4122.17 2309.17,4118.83 2308.5,4115.5C 2308.78,4114.71 2309.28,4114.04 2310,4113.5C 2310.5,4117.49 2310.67,4121.49 2310.5,4125.5 Z"/></g>
<g><path style="opacity:1" fill="#133f85" d="M 2308.5,4115.5 C 2309.17,4118.83 2309.83,4122.17 2310.5,4125.5C 2310.4,4140.85 2310.74,4156.18 2311.5,4171.5C 2297.85,4172.5 2284.18,4172.67 2270.5,4172C 2283.39,4153.29 2296.05,4134.45 2308.5,4115.5 Z"/></g>
<g><path style="opacity:1" fill="#859bbf" d="M 2053.5,4233.5 C 2053.5,4234.83 2053.5,4236.17 2053.5,4237.5C 2051.59,4237.78 2049.92,4237.45 2048.5,4236.5C 2049.83,4236.5 2051.17,4236.5 2052.5,4236.5C 2052.26,4235.21 2052.6,4234.21 2053.5,4233.5 Z"/></g>
<g><path style="opacity:1" fill="#879dc0" d="M 2121.5,4240.5 C 2126.59,4242.14 2131.92,4243.14 2137.5,4243.5C 2131.83,4243.5 2126.17,4243.5 2120.5,4243.5C 2120.26,4242.21 2120.6,4241.21 2121.5,4240.5 Z"/></g>
</svg>
